<svg id="Layer_1" data-name="Layer 1" xmlns="http://www.w3.org/2000/svg" viewBox="0 0 845 505"><defs><style>.cls-1{fill:#cac5c0;}.cls-2{fill:#0d0f0f;}.cls-3{fill:#a3c095;}.cls-4{fill:#e49977;}.cls-5{fill:#bab1ab;}.cls-6{fill:#c1d7e9;}.cls-7{fill:#f8f6d8;}.cls-8{fill:#fff;}.cls-9{fill:#111212;}.cls-10{fill:#c9c4be;}.cls-11{fill:#ccc2c0;}</style></defs><title>mana symbols-full</title><g id="svg_4" data-name="svg 4"><circle id="svg_5" data-name="svg 5" class="cls-1" cx="125" cy="40" r="40"/></g><path id="svg_6" data-name="svg 6" class="cls-2" d="M129.56,8V59.28c0,6.16,2.56,9.2,7.76,9.2h1.36V72H111.4V68.48h1.68c5,0,7.52-3,7.52-9.2V25.68c0-6.24-2.16-9.28-6.48-9.28H111.4V13h1a23.35,23.35,0,0,0,14.48-5L129.56,8Z"/><g id="svg_7" data-name="svg 7"><circle id="svg_8" data-name="svg 8" class="cls-1" cx="210" cy="40" r="40"/></g><path id="svg_9" data-name="svg 9" class="cls-2" d="M231.92,56.08,227.2,72H188V68.56c1.92-2.16,6.08-6.4,12.48-12.88,3.84-3.92,7.68-8,11.52-12.32a48.51,48.51,0,0,0,4.4-5.52,17.79,17.79,0,0,0,3.44-10.08,13.67,13.67,0,0,0-3.12-8.88A10,10,0,0,0,208.64,15c-7.12,0-12.64,4.8-16.72,14.4l-3.52-1.28C193.12,14.72,200.64,8,210.88,8a17.74,17.74,0,0,1,12.88,5.12,17.16,17.16,0,0,1,5.36,12.72c0,6.48-3.68,12.72-11.12,18.88l-7.68,6.4a115.49,115.49,0,0,0-12.16,11.52c-.24.24-.64.72-1.28,1.52h20.4c3.12,0,5.52-.64,7.12-1.84q2-1.68,4.08-6.24Z"/><g id="svg_10" data-name="svg 10"><circle id="svg_11" data-name="svg 11" class="cls-1" cx="295" cy="40" r="40"/></g><path id="svg_12" data-name="svg 12" class="cls-2" d="M286.68,42.08l-1.6-3,1-.64a117,117,0,0,0,11.36-7.68c3.44-2.56,5.12-5.52,5.12-8.8a7.18,7.18,0,0,0-2.48-5.6,8.3,8.3,0,0,0-5.76-2.24q-7.68,0-16.32,9.6l-2.72-2.08c6-9,13.28-13.6,21.84-13.6a16.47,16.47,0,0,1,9.68,2.8,9.83,9.83,0,0,1,4.56,8.48,11.2,11.2,0,0,1-3.2,7.52,40.28,40.28,0,0,1-6.48,5.6l-1.28,1a16.1,16.1,0,0,1,2.08-.08,12.24,12.24,0,0,1,9.76,4.56,15.91,15.91,0,0,1,3.84,10.56c0,6.8-2.88,12.56-8.64,17.12A28.25,28.25,0,0,1,289.08,72c-6.4,0-11.44-1.36-15.12-4.16l1.92-2.72a27.5,27.5,0,0,0,11.76,3.12,20.32,20.32,0,0,0,13.6-5,15.87,15.87,0,0,0,6-12.64,12.67,12.67,0,0,0-3-8.48,9.93,9.93,0,0,0-7.84-3.52C293.4,38.64,290.2,39.76,286.68,42.08Z"/><g id="svg_13" data-name="svg 13"><circle id="svg_14" data-name="svg 14" class="cls-1" cx="380" cy="40" r="40"/></g><path id="svg_15" data-name="svg 15" class="cls-2" d="M391.44,53.92v5.36c0,6.16,2.16,9.2,6.48,9.2h1.84V72H373.6V68.48h2.08c4.24,0,6.4-3,6.4-9.12V53.84H355.84V48.32L383.52,8h7.92V49.28h.64c2.72,0,4.72-2.08,5.92-6.24h3.28l-1.52,10.88Zm-9.36-4.64V16.08l-22.32,33.2Z"/><g id="svg_16" data-name="svg 16"><circle id="svg_17" data-name="svg 17" class="cls-1" cx="465" cy="40" r="40"/></g><path id="svg_18" data-name="svg 18" class="cls-2" d="M453,9.12h23.12c3,0,4.8-.32,5.36-1.12h3.36l-1.92,8.72H454.6l-2.72,12.64a29.18,29.18,0,0,1,10.88-2.48,21.61,21.61,0,0,1,15.68,6.24,20.81,20.81,0,0,1,6.4,15.52A21.12,21.12,0,0,1,476.52,66a29.46,29.46,0,0,1-18.64,6.08,42.11,42.11,0,0,1-12.64-1.92l1.28-3.2a34.52,34.52,0,0,0,9.2,1.44,20.8,20.8,0,0,0,14-5.2,16.7,16.7,0,0,0,6-13.12,15.07,15.07,0,0,0-4.4-11.2,15.51,15.51,0,0,0-11.2-4.4,18.38,18.38,0,0,0-11.68,4.32l-2.16-.4Z"/><g id="svg_19" data-name="svg 19"><circle id="svg_20" data-name="svg 20" class="cls-1" cx="550" cy="40" r="40"/></g><path id="svg_21" data-name="svg 21" class="cls-2" d="M539.28,35.76C544,31.28,548.8,29,553.6,29a15.11,15.11,0,0,1,12.64,6.24,21.87,21.87,0,0,1,4.4,13.84,24.7,24.7,0,0,1-5.2,15.52C561.6,69.52,556.88,72,551.2,72c-6.8,0-12.32-3-16.4-8.88a31.16,31.16,0,0,1-5.52-18.48,37.57,37.57,0,0,1,6.24-20.88,33.78,33.78,0,0,1,16.72-13.52A34.62,34.62,0,0,1,564.8,8v3.36c-9.36.48-16.32,4.24-21,11.2A32.24,32.24,0,0,0,539.28,35.76Zm-.64,6.48c-.08,1.28-.08,2.56-.08,3.92A37.35,37.35,0,0,0,541.12,60c2.24,5.52,5.52,8.32,9.84,8.32q5.64,0,8.4-5.76a24.16,24.16,0,0,0,2.16-10.72,28.93,28.93,0,0,0-2.08-11.44q-2.76-6.48-8.64-6.48C546.08,33.92,542,36.64,538.64,42.24Z"/><g id="svg_22" data-name="svg 22"><circle id="svg_23" data-name="svg 23" class="cls-1" cx="635" cy="40" r="40"/></g><path id="svg_24" data-name="svg 24" class="cls-2" d="M637.8,72h-9.28V71c0-5.92,1.84-13.36,5.6-22.24,5.6-13.44,10.8-23.76,15.6-30.88l.64-1H628.52c-3.12,0-5.52.64-7.2,2s-2.88,3.52-3.68,6.56H614L618,8.08h2.32c1.36.72,3.76,1.12,7.2,1.12H656v5a57.38,57.38,0,0,0-3.92,7,142.38,142.38,0,0,0-8.48,21C639.8,53.76,637.88,63.76,637.8,72Z"/><g id="svg_25" data-name="svg 25"><circle id="svg_26" data-name="svg 26" class="cls-1" cx="720" cy="40" r="40"/></g><path id="svg_27" data-name="svg 27" class="cls-2" d="M712.8,39.6l-1.36-1c-4.08-2.8-6.8-5-8.08-6.8a11.82,11.82,0,0,1-2.48-7.52A14.26,14.26,0,0,1,707,12.4a21.48,21.48,0,0,1,13.28-4.32A22.18,22.18,0,0,1,733,11.84c4.16,2.8,6.24,6.48,6.24,11.12,0,5.6-3.92,10.16-11.76,13.6,8.88,4.32,13.36,10.32,13.36,18a15.55,15.55,0,0,1-6.32,13.12c-3.84,3-8.56,4.4-14.32,4.4A23.8,23.8,0,0,1,706.24,68c-4.48-3.12-6.64-7.2-6.64-12.24s2.4-9.28,7.12-12.64A34.12,34.12,0,0,1,712.8,39.6Zm3.6,1.52c-6.48,3-9.68,7.6-9.68,13.92a12.84,12.84,0,0,0,3.92,9.84,14.11,14.11,0,0,0,10.08,3.68,14.34,14.34,0,0,0,9.28-3,9.85,9.85,0,0,0,3.84-8.24c0-5.28-3.52-9.6-10.48-12.88Zm7.28-6.4c5.68-2.48,8.48-6.32,8.48-11.28a10.5,10.5,0,0,0-3.6-8.32A13.08,13.08,0,0,0,719.68,12,12.54,12.54,0,0,0,712,14.4a8,8,0,0,0-3.52,6.88c0,3.52,1.68,6.32,5,8.48.64.4,3.52,1.84,8.64,4.24Z"/><g id="svg_28" data-name="svg 28"><circle id="svg_29" data-name="svg 29" class="cls-1" cx="805" cy="40" r="40"/></g><path id="svg_30" data-name="svg 30" class="cls-2" d="M815.72,44.4c-4.72,4.48-9.52,6.72-14.32,6.72a15.11,15.11,0,0,1-12.64-6.24,21.79,21.79,0,0,1-4.4-13.76,25.26,25.26,0,0,1,5.2-15.6c3.76-5,8.48-7.44,14.08-7.44,6.88,0,12.4,3,16.48,9a31.66,31.66,0,0,1,5.52,18.64c0,10.16-3.36,18.8-10.16,25.84s-15.2,10.56-25.36,10.64V68.8a32.44,32.44,0,0,0,7.44-1C808,64.4,814,56.72,815.72,44.4Zm.64-6.48c.08-1.36.08-2.64.08-3.84a36.33,36.33,0,0,0-2.56-13.76C811.56,14.8,808.28,12,804,12c-3.76,0-6.48,1.92-8.32,5.68a24,24,0,0,0-2.16,10.64,28.93,28.93,0,0,0,2.08,11.44q2.76,6.48,8.64,6.48C808.92,46.24,813,43.52,816.36,37.92Z"/><g id="svg_31" data-name="svg 31"><circle id="svg_32" data-name="svg 32" class="cls-1" cx="805" cy="125" r="40"/></g><path id="svg_33" data-name="svg 33" class="cls-2" d="M794.76,99.88V140c0,4.8,2,7.12,6,7.12h1V150H780.36v-2.8h1.44c4,0,6-2.4,6-7.12v-26.4c0-4.8-1.68-7.28-5.12-7.28h-2.16v-2.72h.8a19,19,0,0,0,11.36-3.76Zm32.56,28.56c-3.76,3.52-7.52,5.28-11.2,5.28a11.89,11.89,0,0,1-9.92-5A17.14,17.14,0,0,1,802.84,118a20.21,20.21,0,0,1,4-12.24A13.47,13.47,0,0,1,818,99.88c5.36,0,9.6,2.32,12.8,7a24.57,24.57,0,0,1,4.4,14.64,28.2,28.2,0,0,1-7.92,20.32,26.68,26.68,0,0,1-19.84,8.32v-2.64a30.15,30.15,0,0,0,5.84-.8C821.24,144.2,826,138.12,827.32,128.44Zm.56-5c.08-1.12.08-2.08.08-3a27.94,27.94,0,0,0-2.08-10.8c-1.84-4.32-4.4-6.4-7.76-6.4-3,0-5,1.44-6.4,4.4A18.55,18.55,0,0,0,810,116a23.29,23.29,0,0,0,1.6,9q2.16,5,6.72,5C822,129.88,825.16,127.8,827.88,123.48Z"/><g id="svg_34" data-name="svg 34"><circle id="svg_35" data-name="svg 35" class="cls-1" cx="720" cy="125" r="40"/></g><path id="svg_36" data-name="svg 36" class="cls-2" d="M708.8,100.36v39.52c0,4.72,1.92,7,5.84,7h1v2.64h-21v-2.64H696c4,0,6-2.32,6-7V114c0-4.8-1.68-7.12-5.12-7.12H694.8V104.2h.8a17.89,17.89,0,0,0,11-3.76l2.16-.08Zm18.08,24.32-1-.8a31,31,0,0,1-6.32-5.2,10,10,0,0,1-1.84-5.92,11,11,0,0,1,4.8-9.2,16.08,16.08,0,0,1,10.24-3.36,17.33,17.33,0,0,1,9.84,2.88,10.1,10.1,0,0,1,4.72,8.72c0,4.4-3,7.84-9,10.56,6.88,3.36,10.32,8,10.32,14a12.16,12.16,0,0,1-5,10.24,17.22,17.22,0,0,1-11,3.36,17.8,17.8,0,0,1-10.8-3.2,11.07,11.07,0,0,1-5.2-9.52c0-4,1.84-7.28,5.6-9.84A30.91,30.91,0,0,1,726.88,124.68Zm2.88,1.12q-7.44,3.48-7.44,10.8a10.12,10.12,0,0,0,3,7.6,10.9,10.9,0,0,0,7.68,2.88,11.65,11.65,0,0,0,7.28-2.32,7.58,7.58,0,0,0,3-6.4c0-4.16-2.64-7.52-8-10Zm5.6-4.88c4.4-2,6.64-4.88,6.64-8.8a8.41,8.41,0,0,0-2.8-6.48,10.22,10.22,0,0,0-6.88-2.48,9.94,9.94,0,0,0-6,1.92,6.17,6.17,0,0,0-2.64,5.28,7.63,7.63,0,0,0,3.76,6.56c.56.32,2.8,1.44,6.72,3.28Z"/><g id="svg_37" data-name="svg 37"><circle id="svg_38" data-name="svg 38" class="cls-1" cx="635" cy="125" r="40"/></g><path id="svg_39" data-name="svg 39" class="cls-2" d="M622,100.36V139.8c0,4.72,1.92,7,5.84,7h.88v2.64H607.8v-2.64h1.44c3.92,0,5.92-2.32,5.92-7V114c0-4.8-1.68-7.12-5.12-7.12H608V104.2h.8a17.89,17.89,0,0,0,11-3.76l2.16-.08Zm26.16,49.44H641V149q0-6.84,4.32-17.28c4.4-10.32,8.4-18.32,12.08-23.92l.4-.72H641c-2.48,0-4.32.48-5.6,1.52a9.51,9.51,0,0,0-2.88,5.12H629.8l3-13.52h1.84a14.63,14.63,0,0,0,5.52.72h22v3.92a37.37,37.37,0,0,0-3,5.52,107.46,107.46,0,0,0-6.56,16.16C649.72,135.64,648.2,143.4,648.12,149.8Z"/><g id="svg_40" data-name="svg 40"><circle id="svg_41" data-name="svg 41" class="cls-1" cx="550" cy="125" r="40"/></g><path id="svg_42" data-name="svg 42" class="cls-2" d="M537.44,99.64v40.64c0,4.8,2,7.28,6,7.28h1v2.72H522.8v-2.72h1.44c4.08,0,6.16-2.4,6.16-7.28V113.64c0-4.88-1.76-7.36-5.2-7.36H523v-2.8h.8a18.6,18.6,0,0,0,11.44-3.84Zm16.08,22c3.76-3.52,7.52-5.28,11.36-5.28a12,12,0,0,1,9.92,4.88,17.25,17.25,0,0,1,3.44,11,19.07,19.07,0,0,1-4.08,12.16A13.5,13.5,0,0,1,563,150.2c-5.28,0-9.6-2.32-12.88-7a24.58,24.58,0,0,1-4.32-14.48,29.27,29.27,0,0,1,4.88-16.48,27.22,27.22,0,0,1,23-12.4v2.64c-7.36.32-12.88,3.28-16.48,8.8A24.3,24.3,0,0,0,553.52,121.64Zm-.56,5c-.08,1-.08,2.08-.08,3a29.06,29.06,0,0,0,2.08,11c1.76,4.32,4.32,6.56,7.76,6.56,3,0,5.12-1.52,6.64-4.48a19.34,19.34,0,0,0,1.6-8.48,23.34,23.34,0,0,0-1.52-9c-1.52-3.44-3.76-5.12-6.88-5.12C558.88,120.12,555.6,122.28,553,126.6Z"/><g id="svg_43" data-name="svg 43"><path id="svg_44" data-name="svg 44" class="cls-1" d="M505,125a40,40,0,1,1-40-40A40,40,0,0,1,505,125Z"/></g><path id="svg_45" data-name="svg 45" class="cls-2" d="M452.76,99.48V140.2c0,4.8,2,7.28,6,7.28h1v2.72H438.12v-2.8h1.44c4.08,0,6.16-2.4,6.16-7.28V113.48c0-4.88-1.76-7.36-5.2-7.36h-2.16V103.4h.8a18.2,18.2,0,0,0,11.44-3.92Zm14.32,1h18.48c2.4,0,3.84-.24,4.32-.8h2.64l-1.52,7H468.44l-2.16,10a23.55,23.55,0,0,1,8.56-1.92,17.08,17.08,0,0,1,12.4,4.88,17.56,17.56,0,0,1-1.52,26,23.3,23.3,0,0,1-14.8,4.8,32.61,32.61,0,0,1-10-1.52l1-2.56a28.85,28.85,0,0,0,7.28,1.12,16.29,16.29,0,0,0,11.12-4.16,13.16,13.16,0,0,0,4.72-10.4,11.91,11.91,0,0,0-12.4-12.32A14.37,14.37,0,0,0,463.4,124l-1.76-.32Z"/><g id="svg_46" data-name="svg 46"><circle id="svg_47" data-name="svg 47" class="cls-1" cx="380" cy="125" r="40"/></g><path id="svg_48" data-name="svg 48" class="cls-2" d="M369,100.6v39.28c0,4.64,1.92,7,5.84,7h1v2.64H355v-2.64h1.36c3.92,0,5.92-2.32,5.92-7V114.12c0-4.72-1.68-7-5-7h-2.08v-2.64h.8a17.83,17.83,0,0,0,11-3.76l2.16-.08Zm34.48,35v4.08c0,4.56,1.6,6.88,4.8,6.88h1.36v2.64H390.16v-2.64h1.52q4.8,0,4.8-6.72v-4.16H376.8v-4.08l20.72-30.24h5.92V132.2h.48c2,0,3.44-1.6,4.4-4.72h2.48l-1.2,8.16-6.08-.08Zm-5.44-4.08V105.72l-17.36,25.76Z"/><g id="svg_49" data-name="svg 49"><circle id="svg_50" data-name="svg 50" class="cls-1" cx="295" cy="125" r="40"/></g><path id="svg_51" data-name="svg 51" class="cls-2" d="M285.4,100.84v38.8c0,4.56,1.92,6.88,5.84,6.88h.88v2.64H271.48v-2.64h1.36c3.92,0,5.92-2.24,5.92-6.88V114.2c0-4.72-1.68-7-5-7h-2.08v-2.64h.8a17.14,17.14,0,0,0,10.8-3.68Zm17.36,25.76-1.2-2.24,1-.48c3-1.92,5.92-3.84,8.56-5.76S315,114,315,111.56a5.43,5.43,0,0,0-1.92-4.24,6.39,6.39,0,0,0-4.32-1.68c-3.92,0-8.08,2.4-12.48,7.12l-2.08-1.52c4.48-6.8,10-10.24,16.56-10.24a12.07,12.07,0,0,1,7.28,2.16,7.36,7.36,0,0,1,3.44,6.48,8.22,8.22,0,0,1-2.48,5.6,39.8,39.8,0,0,1-4.88,4.16l-.88.8a8.25,8.25,0,0,1,1.52-.08,9.13,9.13,0,0,1,7.36,3.44A11.87,11.87,0,0,1,325,131.4c0,5.2-2.16,9.44-6.56,12.88a20.85,20.85,0,0,1-13.76,4.88c-4.88,0-8.64-1-11.36-3l1.44-2.08a20.73,20.73,0,0,0,8.8,2.24,15.72,15.72,0,0,0,10.24-3.76,11.9,11.9,0,0,0,4.48-9.44,9.47,9.47,0,0,0-2.24-6.4,7.38,7.38,0,0,0-5.92-2.64C307.8,124,305.4,124.84,302.76,126.6Z"/><g id="svg_52" data-name="svg 52"><circle id="svg_53" data-name="svg 53" class="cls-1" cx="210" cy="125" r="40"/></g><path id="svg_54" data-name="svg 54" class="cls-2" d="M198.48,100.36v39.36c0,4.72,1.92,7,5.84,7h1v2.72h-21v-2.72h1.2c3.92,0,5.92-2.32,5.92-7V113.88c0-4.8-1.6-7.12-4.88-7.12h-2.16v-2.64h.8a17.81,17.81,0,0,0,11-3.68l2.16-.08Zm40.8,37.12-3.6,12.16H205.76V147c1.44-1.6,4.56-4.88,9.52-9.84,3-3,5.84-6.08,8.8-9.36a48.73,48.73,0,0,0,3.36-4.08A14.22,14.22,0,0,0,230,116a11.16,11.16,0,0,0-2.32-6.88,7.58,7.58,0,0,0-6.24-3c-5.36,0-9.6,3.68-12.64,11l-2.64-1c3.68-10.24,9.44-15.36,17.2-15.36a13.58,13.58,0,0,1,9.84,3.92,12.81,12.81,0,0,1,4.08,9.68c0,5-2.8,9.84-8.48,14.48L223,133.56a77.31,77.31,0,0,0-9.28,8.88c-.24.24-.56.56-1,1.12h15.6a8.52,8.52,0,0,0,5.28-1.36,11.84,11.84,0,0,0,3.2-4.8h2.56Z"/><g id="svg_55" data-name="svg 55"><circle id="svg_56" data-name="svg 56" class="cls-1" cx="125" cy="125" r="40"/></g><path id="svg_57" data-name="svg 57" class="cls-2" d="M116.84,99.64v40.64c0,4.8,2,7.28,6,7.28h1v2.72H102.2v-2.72h1.44c4.08,0,6.16-2.4,6.16-7.28V113.64c0-4.88-1.76-7.36-5.2-7.36h-2.16v-2.72h.8a18.2,18.2,0,0,0,11.44-3.92Zm26,0v40.64c0,4.8,2,7.28,6,7.28h1v2.72H128.2v-2.72h1.44c4.08,0,6.16-2.4,6.16-7.28V113.64c0-4.88-1.76-7.36-5.2-7.36h-2.16v-2.72h.8a18.2,18.2,0,0,0,11.44-3.92Z"/><g id="svg_58" data-name="svg 58"><circle id="svg_59" data-name="svg 59" class="cls-1" cx="40" cy="125" r="40"/></g><path id="svg_60" data-name="svg 60" class="cls-2" d="M28.24,99.88V140.2c0,4.8,2.08,7.2,6.16,7.2h1v2.72H13.92V147.4h1.36c3.92,0,5.92-2.4,5.92-7.2V113.8c0-4.88-1.76-7.28-5.2-7.28H13.84V103.8h.8A18.38,18.38,0,0,0,26,100l2.24-.08Zm7.84,26.72A38.16,38.16,0,0,1,40,109.24c3.28-6.56,7.84-9.84,13.6-9.84q8.28,0,13.2,8.4a31.32,31.32,0,0,1,3.92,15.92,37.26,37.26,0,0,1-3.92,17.2c-3.28,6.4-7.84,9.6-13.52,9.6-5.44,0-9.84-2.8-13.12-8.32A30.06,30.06,0,0,1,36.08,126.6Zm7.28-3A53,53,0,0,0,45.12,138q2.64,9.84,8.64,9.84c6.48,0,9.76-6.72,9.76-20.24,0-16.72-3.52-25-10.56-25-6.32,0-9.52,6.48-9.52,19.44l-.08,1.6Z"/><g id="svg_61" data-name="svg 61"><circle id="svg_62" data-name="svg 62" class="cls-1" cx="40" cy="210" r="40"/></g><path id="svg_63" data-name="svg 63" class="cls-2" d="M42.56,220.64,39,232.56H9.6v-2.48c1.44-1.6,4.64-4.88,9.52-9.68,2.88-3,5.76-6,8.56-9.2A27.89,27.89,0,0,0,31,207a13.11,13.11,0,0,0,2.64-7.68,9.91,9.91,0,0,0-2.4-6.56,7.54,7.54,0,0,0-6.08-2.88q-7.92,0-12.48,10.8l-2.72-1c3.6-10.16,9.28-15.2,17-15.2a13.4,13.4,0,0,1,9.76,3.92,12.57,12.57,0,0,1,4,9.6c0,4.88-2.8,9.6-8.48,14.24L26.4,217a88.78,88.78,0,0,0-9.12,8.72,6,6,0,0,0-1,1.2H31.6A8.32,8.32,0,0,0,37,225.44a11.66,11.66,0,0,0,3-4.72l2.48-.08Zm-.4-10.72a36.87,36.87,0,0,1,3.68-16.48c3.2-6.24,7.52-9.44,13-9.44,5.28,0,9.44,2.72,12.56,8.08A30.24,30.24,0,0,1,75,207.2a35.48,35.48,0,0,1-3.68,16.32c-3.2,6.16-7.52,9.2-12.88,9.2-5.2,0-9.36-2.64-12.48-7.84A29.33,29.33,0,0,1,42.16,209.92Zm7-2.8a54.43,54.43,0,0,0,1.6,13.68c1.6,6.24,4.4,9.44,8.16,9.44,6.16,0,9.28-6.4,9.28-19.28C68.16,195,64.8,187,58.08,187c-6,0-9,6.16-9,18.56v1.52Z"/><g id="svg_64" data-name="svg 64"><path id="svg_65" data-name="svg 65" class="cls-3" d="M760,210a40,40,0,1,1-40-40A40,40,0,0,1,760,210Z"/></g><path id="svg_66" data-name="svg 66" class="cls-2" d="M755,215a4.9,4.9,0,0,1-1.52,3.6,5,5,0,0,1-3.52,1.6,5.07,5.07,0,0,1-4.72-3l-4.72-.24a25.25,25.25,0,0,0-5.92,1.28c-3.12.88-5,1.6-5.36,2.08-.72.8-1.36,2.64-1.76,5.6a34.58,34.58,0,0,0-.56,5.28,7.09,7.09,0,0,0,.88,3.92,6.79,6.79,0,0,0,3.52,2.08c1.76.56,2.88.88,3.28,1a8.84,8.84,0,0,0,1.28-.08h1.2a11.19,11.19,0,0,1,2.72.4c1.36.4,1.92,1,1.68,1.6a14.42,14.42,0,0,0-4.88.64l2.8,1.36q0,1.2-3.36,1.2a12,12,0,0,1-2.48-.4,12.31,12.31,0,0,0-2.08-.4h-1.28a16.75,16.75,0,0,1-.64,3,7.46,7.46,0,0,1-4-2q-2.28-1.92-2.88-1.92T721,243.44a7.82,7.82,0,0,0-1.12,2.56,6,6,0,0,1-2.24-2.56,24,24,0,0,0-.88-2.56c-.64.08-1.92,1.44-3.68,4.16h-.48c-.16-.24-.64-1.6-1.52-4.16a19.69,19.69,0,0,0-5.76-1,28.61,28.61,0,0,0-4,.56l-2.8-.16a23,23,0,0,1,3.52-2.32c2.24-1.36,4-2,5.2-2a3.31,3.31,0,0,1,.8.08,3.31,3.31,0,0,0,.8.08,6.22,6.22,0,0,0,2.24-.72,3.35,3.35,0,0,0,1.76-1.36,11.56,11.56,0,0,0,.24-3.12c0-3.76-1-6.64-3-8.48-1.76-1.68-4.56-2.88-8.56-3.6-1,3.76-4.08,5.68-9,5.68q-2.4,0-4.8-2.88t-2.4-5.28a7.33,7.33,0,0,1,3.12-6.08A7.69,7.69,0,0,1,686,205a6.69,6.69,0,0,1,1.52-4.4,5.75,5.75,0,0,1,4.08-2.16c-.16-2.16.56-3.6,2.08-4.4-.72-.72-1.12-2-1.12-3.92a7.73,7.73,0,0,1,2.16-5.52,7.54,7.54,0,0,1,5.52-2.24,7.62,7.62,0,0,1,5.92,2.48c1.92-6.56,6.08-9.92,12.48-9.92a11.9,11.9,0,0,1,8.8,4,7.21,7.21,0,0,1,1.36,1.6q-1.2,0,1.2-.48a20.48,20.48,0,0,1,3.52-.48,9.7,9.7,0,0,1,6.88,2.88A13.54,13.54,0,0,1,744,189a14.4,14.4,0,0,1,2.16.56,3.88,3.88,0,0,1,2.16,3.76,4.94,4.94,0,0,1-.8,1.92c4.24,2.4,6.4,5.76,6.4,10a14.08,14.08,0,0,1-1.36,5A6,6,0,0,1,755,215Zm-41.2,4.4v-1.28a5.25,5.25,0,0,0-2.24-4.16A7.1,7.1,0,0,0,707,212a10.65,10.65,0,0,0-5.2,1.28C705.36,213.12,709.36,215.12,713.84,219.36ZM712,207a26.93,26.93,0,0,1-2.64-3.52c-2.8.72-4.16,1.6-4.16,2.48a10.89,10.89,0,0,1,3.52.48A14.38,14.38,0,0,0,712,207Zm6.16-3v-4.4c-1.6-.24-2.56-.4-2.88-.4v1.52Zm13-2.8c-.8-.32-2.32-1-4.48-2v8.56C729.76,205.92,731.28,203.68,731.12,201.12Zm5.52,11.76-2.16-2.72L730.4,213a17.29,17.29,0,0,0-3.52,3.28A32.9,32.9,0,0,1,736.64,212.88Z"/><g id="svg_67" data-name="svg 67"><circle id="svg_68" data-name="svg 68" class="cls-4" cx="635" cy="210" r="40"/></g><path id="svg_69" data-name="svg 69" class="cls-2" d="M668.6,223.28c-3,7.12-9,10.72-17.84,10.72a26.29,26.29,0,0,0-5.28.64c-2.88.64-4.24,1.44-4.24,2.56a2,2,0,0,0,.72,1.2,1.77,1.77,0,0,0,1.2.64c-1.68,0-.56.08,3.44.16s6.48.16,7.52.16c-5.92,3.44-15.76,5-29.6,4.8a15,15,0,0,1-11.68-6A18.86,18.86,0,0,1,608,225.6a17.46,17.46,0,0,1,5-12.48A16.19,16.19,0,0,1,625.24,208a17.18,17.18,0,0,1,4.32.72,17.85,17.85,0,0,0,3.6.72q3.72,0,9.36-3.12t5.28-3.12c-.64,7.12-3,11.92-7.12,14.32-2.88,1.68-4.4,3.36-4.4,5a2.85,2.85,0,0,0,1.84,2.48,6.88,6.88,0,0,0,3.12.72c1.76,0,3.52-1.12,5.2-3.28s2.48-4.16,2.24-5.92a26.88,26.88,0,0,1,.4-7.36,9.16,9.16,0,0,1,1.44-3,5.57,5.57,0,0,1,2.32-2.16,13.62,13.62,0,0,1-.64,3,10.52,10.52,0,0,0-.64,3.12,4.61,4.61,0,0,0,1.2,3.44c1.2-.48,2.32-2,3.28-4.56a19.78,19.78,0,0,0,1.44-5.68,12.9,12.9,0,0,1-8.16-3.84c-2.64-2.48-3.92-5.12-3.92-7.92a4.53,4.53,0,0,1,.24-1.44c.4.64,1,1.6,1.84,2.88,1.12,1.68,2,2.56,2.64,2.56.8,0,1.2-.88,1.2-2.56a10.29,10.29,0,0,0-1.76-5.92,5.72,5.72,0,0,0-5-3.12,9.67,9.67,0,0,0-4.24,1.52,10.87,10.87,0,0,1-5.2,1.52,51.77,51.77,0,0,1-6.32-1.84c6.56-1.12,9.84-2.08,9.84-3,0-2.32-4.48-3.84-13.52-4.72-.88-.08-2.48-.24-4.88-.4.24-.32,2.24-.72,5.84-1.12,3-.32,5.2-.48,6.4-.48q24.24,0,30.72,23.52a4,4,0,0,0,1.12-3.12,21.52,21.52,0,0,0-1.6-7c-.4-1.12-1-2.72-1.92-5,5.6,7.12,8.32,13.84,8.32,20.16a18.4,18.4,0,0,1-2.32,9.12,40.81,40.81,0,0,1-5.68,7,47.79,47.79,0,0,0-5.68,6.64,59.7,59.7,0,0,0,7.36-2.32,20.64,20.64,0,0,0,7-5.2A19.8,19.8,0,0,1,668.6,223.28Zm-44.4-40a2.25,2.25,0,0,1-2,2.32l-2.64.4c-1,.48-2.32,2.32-4.16,5.6-.24-1-.48-2.48-.88-4.24a9.2,9.2,0,0,0-3,1.6c-.64.48-1.6,1.2-3,2.16.4-2.48,1.76-4.88,4.08-7.44,2.48-2.8,4.8-4.16,7.12-4.16C622.68,179.52,624.2,180.8,624.2,183.28Zm17.68,9.36a3.33,3.33,0,0,1-1.92,2.88,6.9,6.9,0,0,1-3.68,1.2c-1.6,0-3.12-.88-4.4-2.72a12.11,12.11,0,0,0-4.8-4.4,1.63,1.63,0,0,1,1.2-.48,7,7,0,0,1,3.12,1.44,7.91,7.91,0,0,0,2.8,1.44q.48,0,1.68-1.44a3.42,3.42,0,0,1,2.56-1.44C640.76,189,641.88,190.24,641.88,192.64Z"/><g id="svg_70" data-name="svg 70"><circle id="svg_71" data-name="svg 71" class="cls-5" cx="550" cy="210" r="40"/></g><path id="svg_72" data-name="svg 72" class="cls-2" d="M582.56,208.88c0,4.4-1.6,7.44-4.8,9-1,.48-3.84,1.12-8.8,1.92-3.2.56-4.8,1.76-4.8,3.68v8.16c0,.32.08,1.36.32,3.12l.32,3.2a26.13,26.13,0,0,1-.72,4.88c-1.28.24-2.72.56-4.4.88a17.92,17.92,0,0,1-.8-4.08,7.92,7.92,0,0,1,.24-1.52,7.12,7.12,0,0,0,.24-1.52,16,16,0,0,0-1.28-3.92h-1.52a2.17,2.17,0,0,0-.24,1.28,9.87,9.87,0,0,1,.32,2.88c-1.12.8-2.72,1.84-4.72,3.2q-.72-.24-.48-.24v-7.12c-.16-.32-.48-.48-1-.4h-1.2l-1.2,9.44a24.49,24.49,0,0,1-3.44,0c-.48-2.24-1.28-5.52-2.48-9.84h-.8q-1.08,3.48-1.2,3.84a8.94,8.94,0,0,0,.24,1.52,4.93,4.93,0,0,1,0,3l-.32,2.4a.69.69,0,0,1-.48.24c-2,0-3.36-.48-4-1.52a6.74,6.74,0,0,1-.8-4.24l.8-12a1.79,1.79,0,0,1,.24-.8,1.84,1.84,0,0,0,.24-.72c0-.56-.56-1.6-1.68-3.2q-.24-.12-3.12-.72l-6.72-1.44c-4.64-.88-7-4.56-7-11.12,0-9.76,4-17.92,12.08-24.4q.48,2.76,1.68,7.2c.64.16,1.92.4,3.92.88.4.16,2.48.88,6.16,2.24A64,64,0,0,1,534,187.6q-1.68-2-1.68-6.72,0-1.08,3.84-2.64a21.67,21.67,0,0,1,5.12-1.6,68.14,68.14,0,0,1,8.32-.72c8.32,0,15.12,2.16,20.24,6.4q-2.52,2.88-8.64,6.24c1.6.08,3.92-.56,7-1.92s4.4-2,3.92-2c.56,0,1.6,1,3.2,3.2a40.3,40.3,0,0,1,2.88,4.32,37.08,37.08,0,0,1,4.32,12.32c0,1.52,0,2.64.08,3.28l-.08,1.12Zm-38.4,1.84c0-2.88-1.28-5.6-3.76-8.16s-5.2-3.84-8.08-3.84a8.71,8.71,0,0,0-6.72,3.2,10.58,10.58,0,0,0-2.88,7.2A4.33,4.33,0,0,0,526,213.6a25.79,25.79,0,0,0,5.92.72h5.52Q544.16,214.32,544.16,210.72ZM555,223.12V220c-.48-.88-1-1.76-1.44-2.72a42,42,0,0,0-2.24-5.6l-1.12,11.76c0,1-.24,1.44-.64,1.44a1.51,1.51,0,0,1-.64-.16c-.48-7.12-.72-10.16-.72-9.2V212a.58.58,0,0,0-.48-.32c-2.24,2.32-3.44,6.16-3.44,11.36,0,2.88.24,4.64.8,5.28a14.28,14.28,0,0,0,1.84-.72,6.14,6.14,0,0,1,2.32-.24,12,12,0,0,1,4.64,1.2C554.72,228.56,555,226.72,555,223.12Zm22.72-13.92a10.12,10.12,0,0,0-3-7.2,9.47,9.47,0,0,0-7-3.2c-2.8,0-5.44,1.28-7.84,3.84a11.54,11.54,0,0,0-3.68,8.08c0,2.32,1.12,3.52,3.44,3.52H571.2C575.6,214.16,577.76,212.48,577.76,209.2Z"/><g id="svg_73" data-name="svg 73"><circle id="svg_74" data-name="svg 74" class="cls-6" cx="465" cy="210" r="40"/></g><path id="svg_75" data-name="svg 75" class="cls-2" d="M479,237a19,19,0,0,1-14.16,5.84c-6.32,0-11.28-2.16-15-6.48-3.52-4.08-5.2-9.36-5.2-15.68,0-6.8,3-14.64,8.88-23.36a89.67,89.67,0,0,1,17.12-18.88,51.14,51.14,0,0,0-1.44,9.36,22.34,22.34,0,0,0,4,12.4c3.28,4.8,5.76,8.32,7.52,10.64a21.6,21.6,0,0,1,4,11.76A19.54,19.54,0,0,1,479,237Zm-.08-21.84q-1.56-3.48-3.6-4.56a3.45,3.45,0,0,1,.32,1.76,23.13,23.13,0,0,1-1.2,6.16l-1.36,4.08q0,3.6,3.6,3.6c2.56,0,3.76-1.68,3.76-5A15.76,15.76,0,0,0,478.92,215.12Z"/><g id="svg_76" data-name="svg 76"><circle id="svg_77" data-name="svg 77" class="cls-7" cx="380" cy="210" r="40"/></g><path id="svg_78" data-name="svg 78" class="cls-2" d="M418.16,215.68c-5.28-3-8.64-4.48-10.08-4.48-1,0-1.92.8-2.56,2.48a3.53,3.53,0,0,1-3.6,2.48,24.12,24.12,0,0,1-4.56-.8c-1.28,1.92-1.92,3.2-1.92,3.76q0,1.08,1.68,2.64a4.45,4.45,0,0,0,2.8,1.52,6.77,6.77,0,0,0,1.92-.32,6.37,6.37,0,0,1,1.68-.32q1.2,0,1.2,4.56a66.76,66.76,0,0,1-2,13.36q-2.64-10.32-5.52-10.32a6.71,6.71,0,0,0-1.68.64,5.5,5.5,0,0,1-1.84.64c-1.92,0-3.68-1.76-5.28-5.36-3.12.48-4.64,2.08-4.64,4.72a3.69,3.69,0,0,0,1.84,3.2c1.28.8,1.84,1.36,1.84,1.68,0,1.84-2.64,4.64-8,8.4-2.8,2-4.8,3.44-5.84,4.24a23,23,0,0,0,2.8-4.72,13.72,13.72,0,0,0,1.6-5.12c0-.64-.8-1.6-2.32-2.8s-2.32-2.48-2.32-3.84a10.43,10.43,0,0,1,1.2-4.24,3.93,3.93,0,0,0-3.12-1.52c-2.72,0-4,.88-4,2.64v2.72q.12,3.36-5,3.36A80.86,80.86,0,0,1,349.2,233c7-1.76,10.48-3.76,10.48-6.08a11,11,0,0,1-.4-2.4c-.24-2.08,1.2-4,4.48-5.68-.64-3.12-2.24-4.64-4.88-4.64-.4,0-1.12.72-2.24,2.08s-2.08,2.16-3,2.16q-2.4,0-6.24-5.28c-1.2-1.76-3-4.32-5.52-7.76,1.52.8,3.12,1.6,4.64,2.4a11.93,11.93,0,0,0,4.88,1.44c1,0,1.84-.8,2.8-2.48s2.08-2.48,3.6-2.48a38.82,38.82,0,0,1,4,1.2q1.92-2.88,1.92-4.32a4.48,4.48,0,0,0-1.44-2.8,4,4,0,0,0-2.64-1.6,5.46,5.46,0,0,0-1.6.32,5,5,0,0,1-1.6.32c-1.2,0-1.84-1.52-1.84-4.56,0-.8.8-5.44,2.32-13.84-.08,1,.4,2.88,1.28,5.68,1.12,3.36,2.48,5,4,5a5.58,5.58,0,0,0,1.6-.64,4.84,4.84,0,0,1,1.92-.64q2.28,0,3.84,2.64l1.52,2.72a4.49,4.49,0,0,0,3.52-1.52,5.15,5.15,0,0,0,1.44-3.6,3.67,3.67,0,0,0-1.84-3.36c-1.28-.8-1.84-1.36-1.84-1.76,0-1.44,2.24-3.84,6.64-7.2a51.49,51.49,0,0,1,7-4.72c-2.88,3.92-4.32,6.8-4.32,8.56a4.53,4.53,0,0,0,1.68,3c1.44,1.28,2.24,2.16,2.4,2.72.64,1.52.64,3.68-.24,6.32,1.84,1.28,3.2,1.92,4.16,1.92,1.92,0,3-1,3-3a18.89,18.89,0,0,0-.24-1.92,6.09,6.09,0,0,1-.16-1.84q.36-1.44,5.52-1.44c2.16,0,6.64.64,13.44,1.84-1.52.4-3.68,1-6.64,1.84-2.72.8-4,1.68-4,2.72a10.17,10.17,0,0,0,.48,2.4,10.41,10.41,0,0,1,.48,2.56A3.36,3.36,0,0,1,399.6,200l-3.44,2.4a20,20,0,0,0,1.6,2.64,3.35,3.35,0,0,0,2.72,1.2c.8,0,1.52-.72,2.24-2.08a3.26,3.26,0,0,1,3.2-2.08c1.84,0,3.84,1.68,6.16,5C413.44,209,415.44,211.84,418.16,215.68Zm-22.4-5.84a15.36,15.36,0,0,0-4.72-11.2,15.18,15.18,0,0,0-11.2-4.72,16.4,16.4,0,0,0-16.16,16,14.4,14.4,0,0,0,4.8,11.12,16,16,0,0,0,11.36,4.72,15.81,15.81,0,0,0,11.44-4.48A15.31,15.31,0,0,0,395.76,209.84Zm-1.52,0A13.39,13.39,0,0,1,390.08,220a14.05,14.05,0,0,1-10.32,4,14.34,14.34,0,0,1-14.4-14.24,13.56,13.56,0,0,1,4.32-10.08,14.44,14.44,0,0,1,24.56,10.16Z"/><g id="svg_79" data-name="svg 79"><path id="svg_80" data-name="svg 80" class="cls-1" d="M165,210a40,40,0,1,1-40-40A40,40,0,0,1,165,210Z"/></g><g id="svg_81" data-name="svg 81"><path id="svg_82" data-name="svg 82" class="cls-2" d="M130.28,234v-2.64c3.76-.4,5.68-1.52,5.68-3.28a5.68,5.68,0,0,0-1.52-3.76L124,211.52l-8.24,9.68c-2.08,2.4-3.12,4.32-3.12,5.92,0,2.4,1.92,3.84,5.68,4.32v2.64H98.28v-2.64a15.88,15.88,0,0,0,6.48-2.72,51.18,51.18,0,0,0,5-5.12l12.32-14.32L107.8,191.92a24.73,24.73,0,0,0-4.32-4.4,12.82,12.82,0,0,0-5.76-1.92v-2.8h23.6v2.64c-3.6.72-5.36,1.76-5.36,3.28A5.53,5.53,0,0,0,117.4,192l9.44,11.44,7.6-9.36c1.36-1.68,2.08-3.12,2.08-4.4q0-3.12-5-4.08v-2.8h18.8v2.64a12.59,12.59,0,0,0-3.36,1c-2.08,1-5.2,3.92-9.44,8.72-.72.8-3.6,4.32-8.64,10.64L144,224.48q4.92,6.12,10.08,7v2.64H130.28Z"/></g><g id="svg_83" data-name="svg 83"><path id="svg_84" data-name="svg 84" class="cls-6" d="M68.24,266.68a40,40,0,0,1-56.56,56.64"/><path id="svg_85" data-name="svg 85" class="cls-7" d="M11.68,323.32a40,40,0,0,1,56.56-56.64"/></g><path id="svg_86" data-name="svg 86" class="cls-2" d="M61.36,322a10.81,10.81,0,0,1-7.92,3.28,10.55,10.55,0,0,1-8.4-3.6,13,13,0,0,1-3-8.8c0-3.84,1.68-8.24,5-13.12a50.74,50.74,0,0,1,9.6-10.64,26.94,26.94,0,0,0-.8,5.28,12.18,12.18,0,0,0,2.24,7c1.84,2.72,3.28,4.72,4.24,6A11.8,11.8,0,0,1,64.64,314,11.12,11.12,0,0,1,61.36,322Zm0-12.32a5.3,5.3,0,0,0-2-2.56,3,3,0,0,1,.16,1,11.93,11.93,0,0,1-.72,3.44l-.72,2.32a1.75,1.75,0,0,0,2,2c1.44,0,2.16-1,2.16-2.8A10.47,10.47,0,0,0,61.36,309.64Z"/><path id="svg_87" data-name="svg 87" class="cls-2" d="M43.76,285.64a14.12,14.12,0,0,0-3.84-3c-.48-.08-.88.16-1.36.8a1.67,1.67,0,0,1-1.84.72,8.79,8.79,0,0,1-1.84-.8,5.78,5.78,0,0,0-1.2,1.44c-.08.32.08.72.48,1.28s.72.88,1,1a2.74,2.74,0,0,0,.88.08c.4,0,.64,0,.72.08.32.08.4.8.08,2.08a29.19,29.19,0,0,1-2.24,5.52c-.08-3.12-.48-4.8-1.36-5a4.1,4.1,0,0,0-.8.08,4.31,4.31,0,0,1-.88.08c-.8-.24-1.44-1.12-1.68-2.8-1.36-.08-2.24.4-2.48,1.52a1.58,1.58,0,0,0,.48,1.6c.48.48.64.8.64,1-.16.8-1.6,1.68-4.32,2.8-1.44.56-2.4,1-3,1.2A8.93,8.93,0,0,0,23,293.56a4.78,4.78,0,0,0,1.2-2.08q.12-.48-.72-1.44a2.35,2.35,0,0,1-.64-1.92,3.69,3.69,0,0,1,1-1.68,1.48,1.48,0,0,0-1.2-1c-1.12-.24-1.84,0-2,.72.16-.48,0-.16-.24,1.2-.24,1-1,1.28-2.48.88a30.34,30.34,0,0,1-5.52-2.16c3.2,0,4.88-.56,5.12-1.52,0,.08,0-.24.08-1.12s1-1.6,2.48-2A2.09,2.09,0,0,0,18.4,279q-.24-.12-1.2.72c-.64.48-1.12.72-1.52.56q-1.08-.24-2.16-2.88c-.32-.88-.88-2.16-1.6-3.92L13.68,275a6.35,6.35,0,0,0,1.92,1.12c.4.08.88-.16,1.44-.8a1.7,1.7,0,0,1,1.76-.72,9.82,9.82,0,0,1,1.6,1,4.54,4.54,0,0,0,1.28-1.68,2,2,0,0,0-.32-1.36q-.48-.84-1-1a2.12,2.12,0,0,0-.72,0H19c-.48-.16-.64-.8-.32-2.16.08-.32.88-2.24,2.4-5.68a6.44,6.44,0,0,0,0,2.56c.16,1.6.56,2.4,1.2,2.56a3.09,3.09,0,0,0,.72-.08,4.31,4.31,0,0,1,.88-.08,1.91,1.91,0,0,1,1.36,1.52l.4,1.36a1.79,1.79,0,0,0,1.68-.32,2.33,2.33,0,0,0,1-1.44,1.67,1.67,0,0,0-.48-1.68c-.48-.48-.64-.8-.64-1q.24-1,3.6-2.4c1.84-.8,3-1.2,3.44-1.36-1.68,1.36-2.56,2.48-2.72,3.2a2.2,2.2,0,0,0,.4,1.44,7.18,7.18,0,0,1,.8,1.44,4,4,0,0,1-.72,2.72,4.74,4.74,0,0,0,1.6,1.28c.8.24,1.36-.16,1.6-1a6.37,6.37,0,0,0,.08-.88,1.28,1.28,0,0,1,.16-.8c.24-.4,1-.4,2.56,0a48.06,48.06,0,0,1,5.6,2.16c-.64,0-1.68.08-3,.08-1.2.08-1.92.32-2,.72a2.53,2.53,0,0,0,0,1.12A3.94,3.94,0,0,1,38.4,276c-.08.4-.48.72-1,1l-1.76.72a6,6,0,0,0,.4,1.28,1.51,1.51,0,0,0,1,.8q.48.12,1.2-.72a1.4,1.4,0,0,1,1.6-.56c.8.16,1.52,1.12,2.16,2.8C42.4,282.28,43,283.72,43.76,285.64Zm-9-4.88a6.55,6.55,0,0,0-.88-5.28,7,7,0,0,0-4.32-3.2,6.73,6.73,0,0,0-5.36.88,7,7,0,0,0-3.2,4.32,6.55,6.55,0,0,0,.88,5.28,7.12,7.12,0,0,0,4.4,3.2,6.86,6.86,0,0,0,5.36-.72A7,7,0,0,0,34.72,280.76Zm-.64-.08a5.77,5.77,0,0,1-2.8,3.92,5.88,5.88,0,0,1-4.8.64,6.14,6.14,0,0,1-3.92-2.8,6.25,6.25,0,0,1-.8-4.8,5.84,5.84,0,0,1,2.88-3.84,6.33,6.33,0,0,1,4.8-.72A6.18,6.18,0,0,1,33.36,276,6.44,6.44,0,0,1,34.08,280.68Z"/><g id="svg_88" data-name="svg 88"><path id="svg_89" data-name="svg 89" class="cls-5" d="M153.24,266.68a40,40,0,0,1-56.56,56.64"/><path id="svg_90" data-name="svg 90" class="cls-7" d="M96.68,323.32a40.05,40.05,0,0,1,56.64-56.64"/></g><path id="svg_91" data-name="svg 91" class="cls-2" d="M156.68,307.8a4.52,4.52,0,0,1-2.32,4.4,22.51,22.51,0,0,1-4.32,1c-1.6.24-2.32.88-2.32,1.84v4c0,.16.08.64.16,1.52l.16,1.6a12.24,12.24,0,0,1-.32,2.4c-.64.16-1.36.24-2.16.48a11.87,11.87,0,0,1-.4-2,1.46,1.46,0,0,1,.16-.72,4.06,4.06,0,0,0,.16-.72,9.66,9.66,0,0,0-.64-1.92H144a.85.85,0,0,0-.08.64,4.94,4.94,0,0,1,.16,1.44c-.56.4-1.36.88-2.32,1.6-.24-.08-.32-.08-.24-.08v-3.52a.36.36,0,0,0-.48-.16h-.56L140,324.2h-1.68q-.36-1.68-1.2-4.8h-.4c-.32,1.12-.56,1.76-.56,1.84a6.7,6.7,0,0,0,.16.8,6.7,6.7,0,0,1,.16.8,3.52,3.52,0,0,1-.08.72l-.16,1.2a.29.29,0,0,1-.24.08,2.43,2.43,0,0,1-2-.72,3.24,3.24,0,0,1-.4-2.08l.4-5.92a.87.87,0,0,1,.08-.4.6.6,0,0,0,.08-.32,3.89,3.89,0,0,0-.8-1.6c-.08,0-.64-.16-1.52-.32-.56-.16-1.68-.32-3.28-.72-2.24-.4-3.36-2.24-3.36-5.44a14.77,14.77,0,0,1,5.92-11.92c.16.88.48,2.08.8,3.52l1.92.48c.16.08,1.2.4,3,1.12a35.12,35.12,0,0,1-3.6-2.72,5.07,5.07,0,0,1-.8-3.28c0-.4.64-.8,1.84-1.28a10.5,10.5,0,0,1,2.48-.8,30.92,30.92,0,0,1,4.08-.32c4.08,0,7.44,1,9.92,3.12a14.12,14.12,0,0,1-4.24,3,8.31,8.31,0,0,0,3.44-1q2.28-1,1.92-1c.24,0,.8.56,1.6,1.6.56.8,1,1.52,1.44,2.08a17.68,17.68,0,0,1,2.08,6.08,8.29,8.29,0,0,0,.08,1.6l-.32.08Zm-18.8.88a5.78,5.78,0,0,0-1.84-4,5.41,5.41,0,0,0-3.92-1.92,4.33,4.33,0,0,0-3.28,1.6,5.1,5.1,0,0,0-1.44,3.52A2.08,2.08,0,0,0,129,310a13.05,13.05,0,0,0,2.88.32h2.72C136.76,310.44,137.88,309.88,137.88,308.68Zm5.36,6.08v-1.52c-.24-.4-.48-.88-.72-1.36a15.1,15.1,0,0,0-1.12-2.72l-.56,5.76c0,.48-.08.72-.32.72s-.24,0-.32-.08c-.24-3.44-.32-5-.32-4.48V309.4c-.08-.08-.16-.16-.24-.16q-1.68,1.68-1.68,5.52a5.66,5.66,0,0,0,.4,2.64,6.08,6.08,0,0,0,.88-.32,3.34,3.34,0,0,1,1.12-.08,5.39,5.39,0,0,1,2.24.56C143.08,317.4,143.24,316.52,143.24,314.76Zm11.12-6.8a5.1,5.1,0,0,0-1.44-3.52,4.4,4.4,0,0,0-3.36-1.52,5.25,5.25,0,0,0-3.84,1.92,5.62,5.62,0,0,0-1.76,4,1.66,1.66,0,0,0,1.68,1.61h5.68C153.24,310.36,154.36,309.56,154.36,308Z"/><path id="svg_92" data-name="svg 92" class="cls-2" d="M128.76,285.64a14.12,14.12,0,0,0-3.84-3c-.48-.08-.88.16-1.36.8a1.67,1.67,0,0,1-1.84.72,8.79,8.79,0,0,1-1.84-.8,5.78,5.78,0,0,0-1.2,1.44c-.08.32.08.72.48,1.28s.72.88,1,1a2.74,2.74,0,0,0,.88.08c.4,0,.64,0,.72.08.32.08.4.8.08,2.08a29.19,29.19,0,0,1-2.24,5.52c-.08-3.12-.48-4.8-1.36-5a4.1,4.1,0,0,0-.8.08,4.31,4.31,0,0,1-.88.08c-.8-.24-1.44-1.12-1.68-2.8-1.36-.08-2.24.4-2.48,1.52a1.58,1.58,0,0,0,.48,1.6c.48.48.64.8.64,1-.16.8-1.6,1.68-4.32,2.8-1.44.56-2.4,1-3,1.2a8.93,8.93,0,0,0,1.68-1.76,4.78,4.78,0,0,0,1.2-2.08q.12-.48-.72-1.44a2.43,2.43,0,0,1-.64-1.92,3.69,3.69,0,0,1,1-1.68,1.48,1.48,0,0,0-1.2-1c-1.12-.24-1.84-.08-2,.72.16-.48,0-.16-.24,1.2-.24,1-1,1.28-2.48.88a30.34,30.34,0,0,1-5.52-2.16c3.2,0,4.88-.56,5.12-1.52,0,.08,0-.24.08-1.12s1-1.6,2.48-2a2.09,2.09,0,0,0-1.6-2.48q-.24-.12-1.2.72c-.64.48-1.12.72-1.52.64q-1.08-.24-2.16-2.88c-.32-.88-.88-2.16-1.6-3.92l1.76,1.52a6.35,6.35,0,0,0,1.92,1.12c.4.08.88-.16,1.44-.8a1.7,1.7,0,0,1,1.76-.72,9.82,9.82,0,0,1,1.6,1,4.54,4.54,0,0,0,1.28-1.68,2,2,0,0,0-.32-1.36q-.48-.84-1-1a2.12,2.12,0,0,0-.72,0H104c-.56-.16-.64-.8-.32-2.16.08-.32.88-2.24,2.4-5.68a6.44,6.44,0,0,0,0,2.56c.16,1.6.56,2.4,1.2,2.56a3.09,3.09,0,0,0,.72-.08,4.31,4.31,0,0,1,.88-.08,1.91,1.91,0,0,1,1.36,1.52l.4,1.36a1.79,1.79,0,0,0,1.68-.32,2.33,2.33,0,0,0,1-1.44,1.67,1.67,0,0,0-.48-1.68c-.48-.48-.64-.8-.64-1q.24-1,3.6-2.4c1.84-.8,3-1.2,3.44-1.36-1.68,1.36-2.56,2.48-2.72,3.2a2.2,2.2,0,0,0,.4,1.44,7.18,7.18,0,0,1,.8,1.44,4,4,0,0,1-.72,2.72,4.74,4.74,0,0,0,1.6,1.28c.8.24,1.36-.16,1.6-1a6.37,6.37,0,0,0,.08-.88,1.28,1.28,0,0,1,.16-.8c.24-.4,1-.4,2.56,0a48.06,48.06,0,0,1,5.6,2.16c-.64,0-1.68.08-3,.08-1.2.08-1.92.32-2,.72a2.53,2.53,0,0,0,0,1.12,3.94,3.94,0,0,1-.08,1.12c-.08.4-.48.72-1,1l-1.76.72A6,6,0,0,0,121,279a1.51,1.51,0,0,0,1,.8q.48.12,1.2-.72a1.4,1.4,0,0,1,1.6-.56c.8.16,1.52,1.12,2.16,2.8C127.4,282.28,128,283.72,128.76,285.64Zm-9-4.88a6.55,6.55,0,0,0-.88-5.28,7,7,0,0,0-4.32-3.2,6.73,6.73,0,0,0-5.36.88,7,7,0,0,0-3.2,4.32,6.55,6.55,0,0,0,.88,5.28,7.34,7.34,0,0,0,4.4,3.2,6.86,6.86,0,0,0,5.36-.72A7,7,0,0,0,119.72,280.76Zm-.64-.08a5.77,5.77,0,0,1-2.8,3.92,5.88,5.88,0,0,1-4.8.64,6.14,6.14,0,0,1-3.92-2.8,5.92,5.92,0,0,1-.8-4.8,5.84,5.84,0,0,1,2.88-3.84,6.33,6.33,0,0,1,4.8-.72,6.18,6.18,0,0,1,3.92,2.88A6.44,6.44,0,0,1,119.08,280.68Z"/><g id="svg_93" data-name="svg 93"><path id="svg_94" data-name="svg 94" class="cls-5" d="M238.24,266.68a40,40,0,0,1-56.56,56.64"/><path id="svg_95" data-name="svg 95" class="cls-6" d="M181.68,323.32a40,40,0,0,1,56.56-56.64"/></g><path id="svg_96" data-name="svg 96" class="cls-2" d="M202.88,293.56a10.81,10.81,0,0,1-7.92,3.28,10.55,10.55,0,0,1-8.4-3.6,13,13,0,0,1-3-8.8c0-3.84,1.68-8.24,5-13.12a50.74,50.74,0,0,1,9.6-10.64,26.94,26.94,0,0,0-.8,5.28,12.18,12.18,0,0,0,2.24,7c1.84,2.72,3.28,4.72,4.24,6a11.8,11.8,0,0,1,2.24,6.64A11.12,11.12,0,0,1,202.88,293.56Zm-.08-12.32a5.3,5.3,0,0,0-2-2.56,3,3,0,0,1,.16,1,11.93,11.93,0,0,1-.72,3.44l-.72,2.32a1.75,1.75,0,0,0,2,2c1.44,0,2.16-1,2.16-2.8A7.5,7.5,0,0,0,202.8,281.24Z"/><path id="svg_97" data-name="svg 97" class="cls-2" d="M241.68,307.8a4.52,4.52,0,0,1-2.32,4.4,22.51,22.51,0,0,1-4.32,1c-1.6.24-2.32.88-2.32,1.84v4c0,.16.08.64.16,1.52l.16,1.6a12.24,12.24,0,0,1-.32,2.4c-.64.16-1.36.24-2.16.48a11.87,11.87,0,0,1-.4-2,1.46,1.46,0,0,1,.16-.72,4.06,4.06,0,0,0,.16-.72,9.66,9.66,0,0,0-.64-1.92H229a.85.85,0,0,0-.08.64,4.94,4.94,0,0,1,.16,1.44c-.56.4-1.36.88-2.32,1.6-.24-.08-.32-.08-.24-.08v-3.52a.36.36,0,0,0-.48-.16h-.56L225,324.2h-1.68q-.36-1.68-1.2-4.8h-.4a12.56,12.56,0,0,0-.56,1.84,6.7,6.7,0,0,0,.16.8,6.7,6.7,0,0,1,.16.8,3.52,3.52,0,0,1-.08.72l-.16,1.2a.29.29,0,0,1-.24.08,2.43,2.43,0,0,1-2-.72,3.24,3.24,0,0,1-.4-2.08l.4-5.92a.87.87,0,0,1,.08-.4.6.6,0,0,0,.08-.32,3.89,3.89,0,0,0-.8-1.6c-.08,0-.64-.16-1.52-.32-.56-.16-1.68-.32-3.28-.72-2.24-.4-3.36-2.24-3.36-5.44a14.77,14.77,0,0,1,5.92-11.92c.16.88.48,2.08.8,3.52l1.92.48c.16.08,1.2.4,3,1.12a35.12,35.12,0,0,1-3.6-2.72,5.07,5.07,0,0,1-.8-3.28c0-.4.64-.8,1.84-1.28a10.5,10.5,0,0,1,2.48-.8,30.92,30.92,0,0,1,4.08-.32c4.08,0,7.44,1,9.92,3.12a14.12,14.12,0,0,1-4.24,3,8.31,8.31,0,0,0,3.44-1q2.28-1,1.92-1c.24,0,.8.56,1.6,1.6.56.8,1,1.52,1.44,2.08a17.68,17.68,0,0,1,2.08,6.08,8.29,8.29,0,0,0,.08,1.6v.08Zm-18.8.88a5.78,5.78,0,0,0-1.84-4,5.41,5.41,0,0,0-3.92-1.92,4.33,4.33,0,0,0-3.28,1.6,5.1,5.1,0,0,0-1.44,3.52A2.08,2.08,0,0,0,214,310a13.05,13.05,0,0,0,2.88.32h2.72C221.76,310.44,222.88,309.88,222.88,308.68Zm5.36,6.08v-1.52c-.24-.4-.48-.88-.72-1.36a15.1,15.1,0,0,0-1.12-2.72l-.56,5.76c0,.48-.08.72-.32.72s-.24,0-.32-.08c-.24-3.44-.32-5-.32-4.48V309.4c-.08-.08-.16-.16-.24-.16q-1.68,1.68-1.68,5.52a5.66,5.66,0,0,0,.4,2.64,6.08,6.08,0,0,0,.88-.32,3.34,3.34,0,0,1,1.12-.08,5.39,5.39,0,0,1,2.24.56C228.08,317.4,228.24,316.52,228.24,314.76Zm11.12-6.8a5.1,5.1,0,0,0-1.44-3.52,4.4,4.4,0,0,0-3.36-1.52,5.25,5.25,0,0,0-3.84,1.92,5.64,5.64,0,0,0-1.76,3.92,1.48,1.48,0,0,0,1.68,1.68h5.68C238.24,310.36,239.36,309.56,239.36,308Z"/><g id="svg_98" data-name="svg 98"><path id="svg_99" data-name="svg 99" class="cls-4" d="M323.24,266.68a40,40,0,0,1-56.56,56.64"/><path id="svg_100" data-name="svg 100" class="cls-6" d="M266.68,323.32a40,40,0,0,1,56.56-56.64"/></g><path id="svg_101" data-name="svg 101" class="cls-2" d="M325.64,314.52c-1.36,3.28-4.08,4.88-8.16,4.88a8.63,8.63,0,0,0-2.4.32c-1.28.32-2,.64-2,1.2,0,.16.08.32.32.56s.4.32.56.32c-.8,0-.24,0,1.6.08s3,.08,3.44.08c-2.72,1.6-7.28,2.32-13.6,2.24a6.68,6.68,0,0,1-5.36-2.8,8.68,8.68,0,0,1-2.24-5.76,8,8,0,0,1,2.24-5.76,7.43,7.43,0,0,1,5.68-2.4,7.25,7.25,0,0,1,2,.32,6.37,6.37,0,0,0,1.68.32,9.68,9.68,0,0,0,4.32-1.44,14.67,14.67,0,0,0,2.4-1.44c-.32,3.28-1.44,5.44-3.28,6.64-1.36.8-2,1.52-2,2.32a1.15,1.15,0,0,0,.88,1.12,2.93,2.93,0,0,0,1.44.32,3.17,3.17,0,0,0,2.4-1.52,3.79,3.79,0,0,0,1-2.72,16.75,16.75,0,0,1,.16-3.36,5,5,0,0,1,.64-1.36,3.14,3.14,0,0,1,1-1,4.7,4.7,0,0,1-.32,1.44,4.28,4.28,0,0,0-.32,1.44,2.06,2.06,0,0,0,.56,1.6c.56-.24,1-.88,1.52-2.08a8,8,0,0,0,.64-2.64,6,6,0,0,1-3.76-1.76,5,5,0,0,1-1.84-3.68,1.76,1.76,0,0,1,.08-.64,12.69,12.69,0,0,0,.88,1.28q.84,1.2,1.2,1.2c.4,0,.56-.4.56-1.2a4.71,4.71,0,0,0-.8-2.72,2.61,2.61,0,0,0-2.32-1.44,5,5,0,0,0-2,.72,5.1,5.1,0,0,1-2.4.72,22.49,22.49,0,0,1-2.88-.88c3-.48,4.56-1,4.56-1.36q0-1.56-6.24-2.16c-.4,0-1.12-.08-2.24-.16a7.92,7.92,0,0,1,2.64-.48c1.44-.16,2.4-.24,3-.24q11.16,0,14.16,10.8a2,2,0,0,0,.48-1.44,9.38,9.38,0,0,0-.72-3.2c-.16-.48-.48-1.28-.88-2.24,2.56,3.28,3.84,6.32,3.84,9.28a8.9,8.9,0,0,1-1,4.16,18,18,0,0,1-2.64,3.28,22.15,22.15,0,0,0-2.64,3,30.66,30.66,0,0,0,3.36-1,10.2,10.2,0,0,0,3.2-2.4A3.42,3.42,0,0,1,325.64,314.52Zm-20.4-18.4a1,1,0,0,1-1,1l-1.2.16a8.14,8.14,0,0,0-1.92,2.56c-.08-.48-.24-1.12-.4-2-.32,0-.72.32-1.44.72-.32.24-.72.56-1.36,1a7,7,0,0,1,1.84-3.44,4.64,4.64,0,0,1,3.28-1.92C304.52,294.44,305.24,295,305.24,296.12Zm8.16,4.32a1.67,1.67,0,0,1-.88,1.36,3.49,3.49,0,0,1-1.68.56,2.4,2.4,0,0,1-2-1.28,5.15,5.15,0,0,0-2.24-2,.73.73,0,0,1,.56-.24,4.49,4.49,0,0,1,1.44.64,4.32,4.32,0,0,0,1.28.64c.16,0,.4-.24.8-.64a1.52,1.52,0,0,1,1.2-.64A1.41,1.41,0,0,1,313.4,300.44Z"/><path id="svg_102" data-name="svg 102" class="cls-2" d="M287.88,293.56a10.81,10.81,0,0,1-7.92,3.28,10.55,10.55,0,0,1-8.4-3.6,13,13,0,0,1-3-8.8c0-3.84,1.68-8.24,5-13.12a50.74,50.74,0,0,1,9.6-10.64,26.94,26.94,0,0,0-.8,5.28,12.18,12.18,0,0,0,2.24,7c1.84,2.72,3.28,4.72,4.24,6a11.8,11.8,0,0,1,2.24,6.64A11.12,11.12,0,0,1,287.88,293.56Zm-.08-12.32a5.3,5.3,0,0,0-2-2.56,3,3,0,0,1,.16,1,11.93,11.93,0,0,1-.72,3.44l-.72,2.32a1.75,1.75,0,0,0,2,2c1.44,0,2.16-1,2.16-2.8A7.5,7.5,0,0,0,287.8,281.24Z"/><g id="svg_103" data-name="svg 103"><path id="svg_104" data-name="svg 104" class="cls-4" d="M408.24,266.68a40,40,0,0,1-56.56,56.64"/><path id="svg_105" data-name="svg 105" class="cls-5" d="M351.68,323.32a40,40,0,0,1,56.56-56.64"/></g><path id="svg_106" data-name="svg 106" class="cls-2" d="M410.64,314.52c-1.36,3.28-4.08,4.88-8.16,4.88a8.63,8.63,0,0,0-2.4.32c-1.28.32-2,.64-2,1.2,0,.16.08.32.32.56s.4.32.56.32c-.8,0-.24,0,1.6.08s3,.08,3.44.08c-2.72,1.6-7.28,2.32-13.6,2.24a6.68,6.68,0,0,1-5.36-2.8,8.68,8.68,0,0,1-2.24-5.76,8,8,0,0,1,2.24-5.76,7.43,7.43,0,0,1,5.68-2.4,7.25,7.25,0,0,1,2,.32,6.37,6.37,0,0,0,1.68.32,9.68,9.68,0,0,0,4.32-1.44,14.67,14.67,0,0,0,2.4-1.44c-.32,3.28-1.44,5.44-3.28,6.64-1.36.8-2,1.52-2,2.32a1.15,1.15,0,0,0,.88,1.12,2.93,2.93,0,0,0,1.44.32,3.17,3.17,0,0,0,2.4-1.52,3.79,3.79,0,0,0,1-2.72,16.75,16.75,0,0,1,.16-3.36,5,5,0,0,1,.64-1.36,3.14,3.14,0,0,1,1-1,4.7,4.7,0,0,1-.32,1.44,4.28,4.28,0,0,0-.32,1.44,2.06,2.06,0,0,0,.56,1.6c.56-.24,1-.88,1.52-2.08a8,8,0,0,0,.64-2.64,6,6,0,0,1-3.76-1.76,5,5,0,0,1-1.84-3.68,1.76,1.76,0,0,1,.08-.64,12.69,12.69,0,0,0,.88,1.28q.84,1.2,1.2,1.2c.4,0,.56-.4.56-1.2a4.71,4.71,0,0,0-.8-2.72,2.61,2.61,0,0,0-2.32-1.44,5,5,0,0,0-2,.72,5.1,5.1,0,0,1-2.4.72,22.49,22.49,0,0,1-2.88-.88c3-.48,4.56-1,4.56-1.36q0-1.56-6.24-2.16c-.4,0-1.12-.08-2.24-.16a7.92,7.92,0,0,1,2.64-.48c1.44-.16,2.4-.24,3-.24q11.16,0,14.16,10.8a2,2,0,0,0,.48-1.44,9.38,9.38,0,0,0-.72-3.2c-.16-.48-.48-1.28-.88-2.24,2.56,3.28,3.84,6.32,3.84,9.28a8.9,8.9,0,0,1-1,4.16,18,18,0,0,1-2.64,3.28,22.15,22.15,0,0,0-2.64,3,30.66,30.66,0,0,0,3.36-1,10.2,10.2,0,0,0,3.2-2.4A3.42,3.42,0,0,1,410.64,314.52Zm-20.4-18.4a1,1,0,0,1-1,1l-1.2.16a8.14,8.14,0,0,0-1.92,2.56c-.08-.48-.24-1.12-.4-2-.32,0-.72.32-1.44.72-.32.24-.72.56-1.36,1a7,7,0,0,1,1.84-3.44,4.64,4.64,0,0,1,3.28-1.92C389.52,294.44,390.24,295,390.24,296.12Zm8.16,4.32a1.67,1.67,0,0,1-.88,1.36,3.49,3.49,0,0,1-1.68.56,2.4,2.4,0,0,1-2-1.28,5.15,5.15,0,0,0-2.24-2,.73.73,0,0,1,.56-.24,4.49,4.49,0,0,1,1.44.64,4.32,4.32,0,0,0,1.28.64c.16,0,.4-.24.8-.64a1.52,1.52,0,0,1,1.2-.64A1.41,1.41,0,0,1,398.4,300.44Z"/><path id="svg_107" data-name="svg 107" class="cls-2" d="M382.64,277.48a4.52,4.52,0,0,1-2.32,4.4,22.51,22.51,0,0,1-4.32,1c-1.6.24-2.32.88-2.32,1.84v4c0,.16.08.64.16,1.52l.16,1.6a12.24,12.24,0,0,1-.32,2.4c-.64.16-1.36.24-2.16.48a11.87,11.87,0,0,1-.4-2,1.46,1.46,0,0,1,.16-.72,4.06,4.06,0,0,0,.16-.72,9.66,9.66,0,0,0-.64-1.92H370a.85.85,0,0,0-.08.64,4.94,4.94,0,0,1,.16,1.44c-.56.4-1.36.88-2.32,1.6-.24-.08-.32-.08-.24-.08V289.4a.36.36,0,0,0-.48-.16h-.56l-.56,4.64h-1.68q-.36-1.68-1.2-4.8h-.64c-.32,1.12-.56,1.76-.56,1.84a6.7,6.7,0,0,0,.16.8,6.7,6.7,0,0,1,.16.8,3.52,3.52,0,0,1-.08.72l-.16,1.2a.29.29,0,0,1-.24.08,2.43,2.43,0,0,1-2-.72,3.24,3.24,0,0,1-.4-2.08l.4-5.92a.87.87,0,0,1,.08-.4.6.6,0,0,0,.08-.32,3.89,3.89,0,0,0-.8-1.6c-.08,0-.64-.16-1.52-.32-.56-.16-1.68-.32-3.28-.72-2.24-.4-3.36-2.24-3.36-5.44a14.77,14.77,0,0,1,5.92-11.92c.16.88.48,2.08.8,3.52l1.92.48c.16.08,1.2.4,3,1.12a35.12,35.12,0,0,1-3.6-2.72,5.07,5.07,0,0,1-.8-3.28c0-.4.64-.8,1.84-1.28a10.5,10.5,0,0,1,2.48-.8,30.92,30.92,0,0,1,4.08-.32,15.18,15.18,0,0,1,9.92,3.12,14.12,14.12,0,0,1-4.24,3,8.31,8.31,0,0,0,3.44-1q2.28-1,1.92-1c.24,0,.8.56,1.6,1.6.56.8,1,1.52,1.44,2.08a17.68,17.68,0,0,1,2.08,6.08,8.29,8.29,0,0,0,.08,1.6v.08Zm-18.88.88a5.78,5.78,0,0,0-1.84-4,5.41,5.41,0,0,0-3.92-1.92,4.33,4.33,0,0,0-3.28,1.6,5.1,5.1,0,0,0-1.44,3.52,2.08,2.08,0,0,0,1.6,2.16,13.05,13.05,0,0,0,2.88.32h2.72C362.72,280.12,363.76,279.56,363.76,278.36Zm5.36,6.08v-1.52c-.24-.4-.48-.88-.72-1.36a15.1,15.1,0,0,0-1.12-2.72l-.56,5.76c0,.48-.08.72-.32.72s-.24,0-.32-.08c-.24-3.44-.32-5-.32-4.48V279c-.08-.08-.16-.16-.24-.16q-1.68,1.68-1.68,5.52a5.66,5.66,0,0,0,.4,2.64,6.08,6.08,0,0,0,.88-.32,3.34,3.34,0,0,1,1.12-.08,5.39,5.39,0,0,1,2.24.56C369,287.08,369.12,286.2,369.12,284.44Zm11.12-6.8a5.1,5.1,0,0,0-1.44-3.52,4.4,4.4,0,0,0-3.36-1.52,5.25,5.25,0,0,0-3.84,1.92,5.64,5.64,0,0,0-1.76,3.92,1.48,1.48,0,0,0,1.68,1.68h5.68C379.2,280,380.24,279.24,380.24,277.64Z"/><g id="svg_108" data-name="svg 108"><path id="svg_109" data-name="svg 109" class="cls-3" d="M493.24,266.68a40,40,0,0,1-56.56,56.64"/><path id="svg_110" data-name="svg 110" class="cls-5" d="M436.68,323.32a40,40,0,0,1,56.56-56.64"/></g><path id="svg_111" data-name="svg 111" class="cls-2" d="M467.64,277.48a4.52,4.52,0,0,1-2.32,4.4,22.51,22.51,0,0,1-4.32,1c-1.6.24-2.32.88-2.32,1.84v4c0,.16.08.64.16,1.52l.16,1.6a12.23,12.23,0,0,1-.32,2.4c-.64.16-1.36.24-2.16.48a11.87,11.87,0,0,1-.4-2,1.46,1.46,0,0,1,.16-.72,4.06,4.06,0,0,0,.16-.72,9.66,9.66,0,0,0-.64-1.92H455a.85.85,0,0,0-.08.64,4.94,4.94,0,0,1,.16,1.44c-.56.4-1.36.88-2.32,1.6-.24-.08-.32-.08-.24-.08V289.4a.36.36,0,0,0-.48-.16h-.56l-.56,4.64h-1.68q-.36-1.68-1.2-4.8h-.64a12.56,12.56,0,0,0-.56,1.84,6.69,6.69,0,0,0,.16.8,6.71,6.71,0,0,1,.16.8,3.52,3.52,0,0,1-.08.72l-.16,1.2a.29.29,0,0,1-.24.08,2.43,2.43,0,0,1-2-.72,3.24,3.24,0,0,1-.4-2.08l.4-5.92a.87.87,0,0,1,.08-.4.6.6,0,0,0,.08-.32,3.89,3.89,0,0,0-.8-1.6c-.08,0-.64-.16-1.52-.32-.56-.16-1.68-.32-3.28-.72-2.24-.4-3.36-2.24-3.36-5.44a14.77,14.77,0,0,1,5.92-11.92c.16.88.48,2.08.8,3.52l1.92.48c.16.08,1.2.4,3,1.12a35.13,35.13,0,0,1-3.6-2.72,5.07,5.07,0,0,1-.8-3.28c0-.4.64-.8,1.84-1.28a10.5,10.5,0,0,1,2.48-.8,30.92,30.92,0,0,1,4.08-.32,15.18,15.18,0,0,1,9.92,3.12,14.12,14.12,0,0,1-4.24,3,8.31,8.31,0,0,0,3.44-1q2.28-1,1.92-1c.24,0,.8.56,1.6,1.6.56.8,1,1.52,1.44,2.08a17.68,17.68,0,0,1,2.08,6.08,8.29,8.29,0,0,0,.08,1.6l-.08.08Zm-18.88.88a5.78,5.78,0,0,0-1.84-4,5.41,5.41,0,0,0-3.92-1.92,4.33,4.33,0,0,0-3.28,1.6,5.1,5.1,0,0,0-1.44,3.52,2.08,2.08,0,0,0,1.6,2.16,13.05,13.05,0,0,0,2.88.32h2.72C447.72,280.12,448.76,279.56,448.76,278.36Zm5.36,6.08v-1.52c-.24-.4-.48-.88-.72-1.36a15.1,15.1,0,0,0-1.12-2.72l-.56,5.76c0,.48-.08.72-.32.72s-.24,0-.32-.08c-.24-3.44-.32-5-.32-4.48V279c-.08-.08-.16-.16-.24-.16q-1.68,1.68-1.68,5.52a5.66,5.66,0,0,0,.4,2.64,6.08,6.08,0,0,0,.88-.32,3.34,3.34,0,0,1,1.12-.08,5.39,5.39,0,0,1,2.24.56C454,287.08,454.12,286.2,454.12,284.44Zm11.12-6.8a5.1,5.1,0,0,0-1.44-3.52,4.4,4.4,0,0,0-3.36-1.52,5.25,5.25,0,0,0-3.84,1.92,5.64,5.64,0,0,0-1.76,3.92,1.48,1.48,0,0,0,1.68,1.68h5.68C464.2,280,465.24,279.24,465.24,277.64Z"/><path id="svg_112" data-name="svg 112" class="cls-2" d="M496.6,309.08a2.13,2.13,0,0,1-.72,1.6,2.26,2.26,0,0,1-1.6.72,2.36,2.36,0,0,1-2.16-1.36L490,310a10.2,10.2,0,0,0-2.64.56,7.45,7.45,0,0,0-2.48,1A5.23,5.23,0,0,0,484,314a19.48,19.48,0,0,0-.24,2.4,3.16,3.16,0,0,0,.4,1.76,2.74,2.74,0,0,0,1.6,1,11,11,0,0,0,1.44.4,1.56,1.56,0,0,0,.56-.08h.56a6.17,6.17,0,0,1,1.2.16c.64.16.88.4.8.72a6.48,6.48,0,0,0-2.24.24l1.28.64c0,.4-.48.56-1.52.56a9.18,9.18,0,0,1-1.12-.16,2.81,2.81,0,0,0-1-.16h-.56c0,.32-.16.72-.24,1.36a3.43,3.43,0,0,1-1.84-.88,4.83,4.83,0,0,0-1.28-.88c-.16,0-.48.32-.8.88a3,3,0,0,0-.48,1.2,2.47,2.47,0,0,1-1-1.2c-.16-.4-.24-.8-.4-1.2q-.48,0-1.68,1.92h-.24a12.3,12.3,0,0,1-.72-1.92,8.41,8.41,0,0,0-2.64-.48,11.43,11.43,0,0,0-1.84.24l-1.28-.08a8.9,8.9,0,0,1,1.6-1,5,5,0,0,1,2.32-.88.87.87,0,0,1,.4.08c.16,0,.24.08.4.08a2.41,2.41,0,0,0,1-.32c.48-.24.72-.4.8-.64a5.38,5.38,0,0,0,.08-1.44,5,5,0,0,0-1.36-3.84,7.82,7.82,0,0,0-3.92-1.6c-.48,1.76-1.84,2.56-4.08,2.56a2.87,2.87,0,0,1-2.16-1.28,4,4,0,0,1-1.12-2.4,3.38,3.38,0,0,1,1.44-2.8,3.68,3.68,0,0,1-1.12-2.4,3.07,3.07,0,0,1,.72-2,2.78,2.78,0,0,1,1.84-1,1.88,1.88,0,0,1,1-2,2.44,2.44,0,0,1-.48-1.76,3.29,3.29,0,0,1,3.44-3.44,3.38,3.38,0,0,1,2.64,1.12c.88-3,2.8-4.48,5.68-4.48a5.37,5.37,0,0,1,4,1.84c.4.48.64.72.64.72-.4,0-.16-.08.56-.24a8.51,8.51,0,0,1,1.6-.24,4.23,4.23,0,0,1,3.12,1.28,5.65,5.65,0,0,1,1.6,3,8.28,8.28,0,0,1,1,.24,1.76,1.76,0,0,1,1,1.76,3.31,3.31,0,0,1-.4.88,5.1,5.1,0,0,1,2.88,4.56,6.47,6.47,0,0,1-.64,2.24A2.28,2.28,0,0,1,496.6,309.08Zm-18.64,2v-.56a2.36,2.36,0,0,0-1-1.92,3.38,3.38,0,0,0-2.08-.88,4.53,4.53,0,0,0-2.32.56C474.12,308.2,475.88,309.16,478,311.08Zm-.88-5.6a7.61,7.61,0,0,1-1.2-1.6c-1.28.32-1.92.72-1.92,1.12a4.51,4.51,0,0,1,1.6.24A9,9,0,0,0,477.08,305.48Zm2.8-1.44v-2c-.72-.08-1.2-.16-1.28-.16v.72Zm5.92-1.28c-.4-.16-1-.48-2.08-.88v3.92A3.44,3.44,0,0,0,485.8,302.76Zm2.48,5.36-1-1.2c-.64.4-1.2.88-1.84,1.28a9.3,9.3,0,0,0-1.6,1.44A15,15,0,0,1,488.28,308.12Z"/><g id="svg_113" data-name="svg 113"><path id="svg_114" data-name="svg 114" class="cls-7" d="M578.24,266.68a40,40,0,0,1-56.56,56.64"/><path id="svg_115" data-name="svg 115" class="cls-4" d="M521.68,323.32a40,40,0,0,1,56.56-56.64"/></g><path id="svg_116" data-name="svg 116" class="cls-2" d="M580.4,313.48a14.12,14.12,0,0,0-3.84-3c-.48-.08-.88.16-1.36.8a1.67,1.67,0,0,1-1.84.72,8.79,8.79,0,0,1-1.84-.8,5.78,5.78,0,0,0-1.2,1.44c-.08.32.08.72.48,1.28s.72.88,1,1a2.74,2.74,0,0,0,.88.08c.4,0,.64,0,.72.08.32.08.4.8.08,2.08a29.19,29.19,0,0,1-2.24,5.52c-.08-3.12-.48-4.8-1.36-5a4.1,4.1,0,0,0-.8.08,4.31,4.31,0,0,1-.88.08c-.8-.24-1.44-1.12-1.68-2.8-1.36-.08-2.24.4-2.48,1.52a1.58,1.58,0,0,0,.48,1.6c.48.48.64.8.64,1-.16.8-1.6,1.68-4.32,2.8-1.44.56-2.4,1-3,1.2a8.93,8.93,0,0,0,1.68-1.76,4.78,4.78,0,0,0,1.2-2.08q.12-.48-.72-1.44a2.35,2.35,0,0,1-.64-1.92,3.69,3.69,0,0,1,1-1.68,1.48,1.48,0,0,0-1.2-1c-1.12-.24-1.84,0-2,.72.16-.56,0-.16-.24,1.2-.24,1-1,1.28-2.48.88A30.34,30.34,0,0,1,549,314c3.2,0,4.88-.56,5.12-1.52,0,.08,0-.24.08-1.12s1-1.6,2.48-2a2.09,2.09,0,0,0-1.6-2.48q-.24-.12-1.2.72c-.64.48-1.12.72-1.52.56q-1.08-.24-2.16-2.88c-.32-.88-.88-2.16-1.6-3.92l1.76,1.52a6.35,6.35,0,0,0,1.92,1.12c.4.08.88-.16,1.44-.8a1.7,1.7,0,0,1,1.76-.72,9.82,9.82,0,0,1,1.6,1,4.54,4.54,0,0,0,1.28-1.68,2,2,0,0,0-.32-1.36q-.48-.84-1-1a2.12,2.12,0,0,0-.72,0h-.72c-.48-.16-.64-.8-.32-2.16.08-.32.88-2.24,2.4-5.68a6.44,6.44,0,0,0,0,2.56c.16,1.6.56,2.4,1.2,2.56a3.1,3.1,0,0,0,.72-.08,4.31,4.31,0,0,1,.88-.08,1.91,1.91,0,0,1,1.36,1.52l.4,1.36a1.79,1.79,0,0,0,1.68-.32,2.33,2.33,0,0,0,1-1.44,1.67,1.67,0,0,0-.48-1.68c-.48-.48-.64-.8-.64-1q.24-1,3.6-2.4c1.84-.8,3-1.2,3.44-1.36-1.68,1.36-2.56,2.48-2.72,3.2a2.2,2.2,0,0,0,.4,1.44,7.18,7.18,0,0,1,.8,1.44,4,4,0,0,1-.72,2.72,4.74,4.74,0,0,0,1.6,1.28c.8.24,1.36-.16,1.6-1a6.38,6.38,0,0,0,.08-.88,1.28,1.28,0,0,1,.16-.8c.24-.4,1-.4,2.56,0a48.06,48.06,0,0,1,5.6,2.16c-.64,0-1.68.08-3,.08s-1.92.32-2,.72a2.53,2.53,0,0,0,0,1.12,2.24,2.24,0,0,1-.08,1.12c-.08.4-.48.72-1,1l-1.76.72a6,6,0,0,0,.4,1.28,1.51,1.51,0,0,0,1,.8q.48.12,1.2-.72a1.4,1.4,0,0,1,1.6-.56c.8.16,1.52,1.12,2.16,2.8C579,310.12,579.6,311.56,580.4,313.48Zm-9-4.8a6.55,6.55,0,0,0-.88-5.28,7,7,0,0,0-4.32-3.2,6.73,6.73,0,0,0-5.36.88,7,7,0,0,0-3.2,4.32,6.55,6.55,0,0,0,.88,5.28,7.34,7.34,0,0,0,4.4,3.2,6.86,6.86,0,0,0,5.36-.72A6.51,6.51,0,0,0,571.36,308.68Zm-.64-.16a5.77,5.77,0,0,1-2.8,3.92,5.88,5.88,0,0,1-4.8.64,6.14,6.14,0,0,1-3.92-2.8,5.92,5.92,0,0,1-.8-4.8,5.84,5.84,0,0,1,2.88-3.84,6.33,6.33,0,0,1,4.8-.72,6.29,6.29,0,0,1,4.64,7.6Z"/><path id="svg_117" data-name="svg 117" class="cls-2" d="M551.52,285.48c-1.36,3.28-4.08,4.88-8.16,4.88a8.63,8.63,0,0,0-2.4.32c-1.28.32-2,.64-2,1.2,0,.16.08.32.32.56s.4.32.56.32c-.8,0-.24,0,1.6.08s3,.08,3.44.08c-2.72,1.6-7.28,2.32-13.6,2.24a6.68,6.68,0,0,1-5.36-2.8,8.68,8.68,0,0,1-2.24-5.76,8,8,0,0,1,2.24-5.76,7.43,7.43,0,0,1,5.68-2.4,7.25,7.25,0,0,1,2,.32,6.37,6.37,0,0,0,1.68.32,9.68,9.68,0,0,0,4.32-1.44,14.68,14.68,0,0,0,2.4-1.44c-.32,3.28-1.44,5.44-3.28,6.64-1.36.8-2,1.52-2,2.32a1.15,1.15,0,0,0,.88,1.12,2.93,2.93,0,0,0,1.44.32,3.17,3.17,0,0,0,2.4-1.52,3.79,3.79,0,0,0,1-2.72,16.75,16.75,0,0,1,.16-3.36,5,5,0,0,1,.64-1.36,3.14,3.14,0,0,1,1-1A4.7,4.7,0,0,1,544,278a4.28,4.28,0,0,0-.32,1.44,2.06,2.06,0,0,0,.56,1.6c.56-.24,1-.88,1.52-2.08a8,8,0,0,0,.64-2.64,6,6,0,0,1-3.76-1.76,5,5,0,0,1-1.84-3.68,1.76,1.76,0,0,1,.08-.64,12.69,12.69,0,0,0,.88,1.28q.84,1.2,1.2,1.2c.4,0,.56-.4.56-1.2a4.71,4.71,0,0,0-.8-2.72,2.61,2.61,0,0,0-2.32-1.44,5,5,0,0,0-2,.72,5.1,5.1,0,0,1-2.4.72,22.49,22.49,0,0,1-2.88-.88c3-.48,4.56-1,4.56-1.36q0-1.56-6.24-2.16c-.4,0-1.12-.08-2.24-.16a7.92,7.92,0,0,1,2.64-.48c1.44-.16,2.4-.24,3-.24q11.16,0,14.16,10.8a1.84,1.84,0,0,0,.48-1.44,9.38,9.38,0,0,0-.72-3.2c-.16-.48-.48-1.28-.88-2.24,2.56,3.28,3.84,6.32,3.84,9.28a8.9,8.9,0,0,1-1,4.16A18,18,0,0,1,548,284.2a22.15,22.15,0,0,0-2.64,3,30.67,30.67,0,0,0,3.36-1,10.2,10.2,0,0,0,3.2-2.4C552.08,284,551.92,284.68,551.52,285.48Zm-20.4-18.4c0,.56-.32.88-1,1l-1.2.16a8.14,8.14,0,0,0-1.92,2.56c-.08-.48-.24-1.12-.4-2-.32,0-.72.32-1.44.72-.32.24-.72.56-1.36,1a7,7,0,0,1,1.84-3.44,4.64,4.64,0,0,1,3.28-1.92C530.4,265.32,531.12,265.88,531.12,267.08Zm8.16,4.32a1.67,1.67,0,0,1-.88,1.36,3.49,3.49,0,0,1-1.68.56,2.4,2.4,0,0,1-2-1.28,5.15,5.15,0,0,0-2.24-2,.73.73,0,0,1,.56-.24,4.49,4.49,0,0,1,1.44.64,4.32,4.32,0,0,0,1.28.64c.16,0,.4-.24.8-.64a1.52,1.52,0,0,1,1.2-.64C538.8,269.72,539.28,270.28,539.28,271.4Z"/><g id="svg_118" data-name="svg 118"><path id="svg_119" data-name="svg 119" class="cls-3" d="M663.24,266.68a40,40,0,0,1-56.56,56.64"/><path id="svg_120" data-name="svg 120" class="cls-4" d="M606.68,323.32a40,40,0,0,1,56.56-56.64"/></g><path id="svg_121" data-name="svg 121" class="cls-2" d="M636.52,285.48c-1.36,3.28-4.08,4.88-8.16,4.88a8.63,8.63,0,0,0-2.4.32c-1.28.32-2,.64-2,1.2,0,.16.08.32.32.56s.4.32.56.32c-.8,0-.24,0,1.6.08s3,.08,3.44.08c-2.72,1.6-7.28,2.32-13.6,2.24a6.68,6.68,0,0,1-5.36-2.8,8.68,8.68,0,0,1-2.24-5.76,8,8,0,0,1,2.24-5.76,7.43,7.43,0,0,1,5.68-2.4,7.25,7.25,0,0,1,2,.32,6.37,6.37,0,0,0,1.68.32,9.68,9.68,0,0,0,4.32-1.44,14.68,14.68,0,0,0,2.4-1.44c-.32,3.28-1.44,5.44-3.28,6.64-1.36.8-2,1.52-2,2.32a1.15,1.15,0,0,0,.88,1.12,2.93,2.93,0,0,0,1.44.32,3.17,3.17,0,0,0,2.4-1.52,3.79,3.79,0,0,0,1-2.72,16.75,16.75,0,0,1,.16-3.36,5,5,0,0,1,.64-1.36,3.14,3.14,0,0,1,1-1A4.7,4.7,0,0,1,629,278a4.28,4.28,0,0,0-.32,1.44,2.06,2.06,0,0,0,.56,1.6c.56-.24,1-.88,1.52-2.08a8,8,0,0,0,.64-2.64,6,6,0,0,1-3.76-1.76,5,5,0,0,1-1.84-3.68,1.76,1.76,0,0,1,.08-.64,12.69,12.69,0,0,0,.88,1.28q.84,1.2,1.2,1.2c.4,0,.56-.4.56-1.2a4.71,4.71,0,0,0-.8-2.72,2.61,2.61,0,0,0-2.32-1.44,5,5,0,0,0-2,.72,5.1,5.1,0,0,1-2.4.72,22.49,22.49,0,0,1-2.88-.88c3-.48,4.56-1,4.56-1.36q0-1.56-6.24-2.16c-.4,0-1.12-.08-2.24-.16a7.92,7.92,0,0,1,2.64-.48c1.44-.16,2.4-.24,3-.24q11.16,0,14.16,10.8a1.84,1.84,0,0,0,.48-1.44,9.38,9.38,0,0,0-.72-3.2c-.16-.48-.48-1.28-.88-2.24,2.56,3.28,3.84,6.32,3.84,9.28a8.9,8.9,0,0,1-1,4.16A18,18,0,0,1,633,284.2a22.15,22.15,0,0,0-2.64,3,30.67,30.67,0,0,0,3.36-1,10.2,10.2,0,0,0,3.2-2.4C637.08,284,636.92,284.68,636.52,285.48Zm-20.4-18.4c0,.56-.32.88-1,1l-1.2.16a8.14,8.14,0,0,0-1.92,2.56c-.08-.48-.24-1.12-.4-2-.32,0-.72.32-1.44.72-.32.24-.72.56-1.36,1a7,7,0,0,1,1.84-3.44,4.64,4.64,0,0,1,3.28-1.92C615.4,265.32,616.12,265.88,616.12,267.08Zm8.16,4.32a1.67,1.67,0,0,1-.88,1.36,3.49,3.49,0,0,1-1.68.56,2.4,2.4,0,0,1-2-1.28,5.15,5.15,0,0,0-2.24-2,.73.73,0,0,1,.56-.24,4.49,4.49,0,0,1,1.44.64,4.32,4.32,0,0,0,1.28.64c.16,0,.4-.24.8-.64a1.52,1.52,0,0,1,1.2-.64C623.8,269.72,624.28,270.28,624.28,271.4Z"/><path id="svg_122" data-name="svg 122" class="cls-2" d="M666.6,309.08a2.13,2.13,0,0,1-.72,1.6,2.26,2.26,0,0,1-1.6.72,2.36,2.36,0,0,1-2.16-1.36L660,310a10.2,10.2,0,0,0-2.64.56,7.45,7.45,0,0,0-2.48,1A5.23,5.23,0,0,0,654,314a19.48,19.48,0,0,0-.24,2.4,3.16,3.16,0,0,0,.4,1.76,2.74,2.74,0,0,0,1.6,1,11,11,0,0,0,1.44.4,1.56,1.56,0,0,0,.56-.08h.56a6.17,6.17,0,0,1,1.2.16c.64.16.88.4.8.72a6.48,6.48,0,0,0-2.24.24l1.28.64c0,.4-.48.56-1.52.56a9.18,9.18,0,0,1-1.12-.16,2.81,2.81,0,0,0-1-.16h-.56c0,.32-.16.72-.24,1.36a3.43,3.43,0,0,1-1.84-.88,4.83,4.83,0,0,0-1.28-.88c-.16,0-.48.32-.8.88a3,3,0,0,0-.48,1.2,2.47,2.47,0,0,1-1-1.2c-.16-.4-.24-.8-.4-1.2q-.48,0-1.68,1.92h-.24a12.3,12.3,0,0,1-.72-1.92,8.41,8.41,0,0,0-2.64-.48,11.43,11.43,0,0,0-1.84.24l-1.28-.08a8.9,8.9,0,0,1,1.6-1,5,5,0,0,1,2.32-.88.87.87,0,0,1,.4.08c.16,0,.24.08.4.08a2.41,2.41,0,0,0,1-.32c.48-.24.72-.4.8-.64a5.38,5.38,0,0,0,.08-1.44,5,5,0,0,0-1.36-3.84,7.82,7.82,0,0,0-3.92-1.6c-.48,1.76-1.84,2.56-4.08,2.56a2.87,2.87,0,0,1-2.16-1.28,4,4,0,0,1-1.12-2.4,3.38,3.38,0,0,1,1.44-2.8,3.68,3.68,0,0,1-1.12-2.4,3.07,3.07,0,0,1,.72-2,2.78,2.78,0,0,1,1.84-1,1.88,1.88,0,0,1,1-2,2.44,2.44,0,0,1-.48-1.76,3.29,3.29,0,0,1,3.44-3.44,3.38,3.38,0,0,1,2.64,1.12c.88-3,2.8-4.48,5.68-4.48a5.37,5.37,0,0,1,4,1.84c.4.48.64.72.64.72-.4,0-.16-.08.56-.24a8.51,8.51,0,0,1,1.6-.24,4.23,4.23,0,0,1,3.12,1.28,5.65,5.65,0,0,1,1.6,3,8.28,8.28,0,0,1,1,.24,1.76,1.76,0,0,1,1,1.76,3.31,3.31,0,0,1-.4.88,5.1,5.1,0,0,1,2.88,4.56,6.47,6.47,0,0,1-.64,2.24A2.28,2.28,0,0,1,666.6,309.08Zm-18.64,2v-.56a2.36,2.36,0,0,0-1-1.92,3.38,3.38,0,0,0-2.08-.88,4.53,4.53,0,0,0-2.32.56C644.12,308.2,645.88,309.16,648,311.08Zm-.88-5.6a7.61,7.61,0,0,1-1.2-1.6c-1.28.32-1.92.72-1.92,1.12a4.51,4.51,0,0,1,1.6.24A9,9,0,0,0,647.08,305.48Zm2.8-1.44v-2c-.72-.08-1.2-.16-1.28-.16v.72Zm5.92-1.28c-.4-.16-1-.48-2.08-.88v3.92A3.44,3.44,0,0,0,655.8,302.76Zm2.48,5.36-1-1.2c-.64.4-1.2.88-1.84,1.28a9.3,9.3,0,0,0-1.6,1.44A15,15,0,0,1,658.28,308.12Z"/><g id="svg_123" data-name="svg 123"><path id="svg_124" data-name="svg 124" class="cls-7" d="M748.24,266.68a40,40,0,0,1-56.56,56.64"/><path id="svg_125" data-name="svg 125" class="cls-3" d="M691.68,323.32a40,40,0,0,1,56.56-56.64"/></g><path id="svg_126" data-name="svg 126" class="cls-2" d="M750.4,313.48a14.12,14.12,0,0,0-3.84-3c-.48-.08-.88.16-1.36.8a1.63,1.63,0,0,1-1.84.72,8.79,8.79,0,0,1-1.84-.8,5.78,5.78,0,0,0-1.2,1.44c-.08.32.08.72.48,1.28s.72.88,1,1a2.74,2.74,0,0,0,.88.08c.4,0,.64,0,.72.08.32.08.4.8.08,2.08a29.19,29.19,0,0,1-2.24,5.52c-.08-3.12-.48-4.8-1.36-5a4.1,4.1,0,0,0-.8.08,4.31,4.31,0,0,1-.88.08c-.8-.24-1.44-1.12-1.68-2.8-1.36-.08-2.24.4-2.48,1.52a1.58,1.58,0,0,0,.48,1.6c.48.48.64.8.64,1-.16.8-1.6,1.68-4.32,2.8-1.44.56-2.4,1-3,1.2a8.93,8.93,0,0,0,1.68-1.76,4.78,4.78,0,0,0,1.2-2.08q.12-.48-.72-1.44a2.35,2.35,0,0,1-.64-1.92,3.69,3.69,0,0,1,1-1.68,1.48,1.48,0,0,0-1.2-1c-1.12-.24-1.84,0-2,.72.16-.56,0-.16-.32,1.2-.24,1-1,1.28-2.48.88a30.34,30.34,0,0,1-5.52-2.16c3.2,0,4.88-.56,5.12-1.52,0,.08,0-.24.08-1.12s1-1.6,2.48-2a2.09,2.09,0,0,0-1.6-2.48q-.24-.12-1.2.72c-.64.48-1.12.72-1.52.64q-1.08-.24-2.16-2.88c-.32-.88-.88-2.16-1.6-3.92l1.76,1.52a6.35,6.35,0,0,0,1.92,1.12c.4.08.88-.16,1.44-.8a1.7,1.7,0,0,1,1.76-.72,9.82,9.82,0,0,1,1.6,1,4.54,4.54,0,0,0,1.28-1.68,2,2,0,0,0-.32-1.36q-.48-.84-1-1a2.12,2.12,0,0,0-.72,0h-.72c-.48-.16-.64-.8-.32-2.16.08-.32.88-2.24,2.4-5.68a6.44,6.44,0,0,0,0,2.56c.16,1.6.56,2.4,1.2,2.56a3.1,3.1,0,0,0,.72-.08,4.31,4.31,0,0,1,.88-.08,1.91,1.91,0,0,1,1.36,1.52l.4,1.36a1.79,1.79,0,0,0,1.68-.32,2.33,2.33,0,0,0,1-1.44,1.67,1.67,0,0,0-.48-1.68c-.48-.48-.64-.8-.64-1q.24-1,3.6-2.4c1.84-.8,3-1.2,3.44-1.36-1.68,1.36-2.56,2.48-2.72,3.2a2.2,2.2,0,0,0,.4,1.44,7.18,7.18,0,0,1,.8,1.44,4,4,0,0,1-.72,2.72,4.74,4.74,0,0,0,1.6,1.28c.8.24,1.36-.16,1.6-1a6.38,6.38,0,0,0,.08-.88,1.28,1.28,0,0,1,.16-.8c.24-.4,1-.4,2.56,0a48.06,48.06,0,0,1,5.6,2.16c-.64,0-1.68.08-3,.08-1.2.08-1.92.32-2,.72a2.53,2.53,0,0,0,0,1.12,3.94,3.94,0,0,1-.08,1.12c-.08.4-.48.72-1,1l-1.76.72a6,6,0,0,0,.4,1.28,1.51,1.51,0,0,0,1,.8q.48.12,1.2-.72a1.4,1.4,0,0,1,1.6-.56c.8.16,1.52,1.12,2.16,2.8C749,310.12,749.6,311.56,750.4,313.48Zm-9-4.8a6.55,6.55,0,0,0-.88-5.28,7,7,0,0,0-4.32-3.2,6.73,6.73,0,0,0-5.36.88,7,7,0,0,0-3.2,4.32,6.55,6.55,0,0,0,.88,5.28,7.34,7.34,0,0,0,4.4,3.2,6.86,6.86,0,0,0,5.36-.72A6.51,6.51,0,0,0,741.36,308.68Zm-.64-.16a5.77,5.77,0,0,1-2.8,3.92,5.88,5.88,0,0,1-4.8.64,6.14,6.14,0,0,1-3.92-2.8,5.92,5.92,0,0,1-.8-4.8,5.84,5.84,0,0,1,2.88-3.84,6.33,6.33,0,0,1,4.8-.72,6.29,6.29,0,0,1,4.64,7.6Z"/><path id="svg_127" data-name="svg 127" class="cls-2" d="M721.28,282.44a2.13,2.13,0,0,1-.72,1.6,2.26,2.26,0,0,1-1.6.72,2.36,2.36,0,0,1-2.16-1.36l-2.16-.08a10.2,10.2,0,0,0-2.64.56,7.45,7.45,0,0,0-2.48,1,5.23,5.23,0,0,0-.8,2.56,19.48,19.48,0,0,0-.24,2.4,3.16,3.16,0,0,0,.4,1.76,2.74,2.74,0,0,0,1.6,1,11,11,0,0,0,1.44.4,1.56,1.56,0,0,0,.56-.08H713a6.17,6.17,0,0,1,1.2.16c.64.16.88.4.8.72a6.48,6.48,0,0,0-2.24.24l1.28.64c0,.4-.48.56-1.52.56a9.18,9.18,0,0,1-1.12-.16,2.81,2.81,0,0,0-1-.16h-.56c0,.32-.16.72-.24,1.36a3.43,3.43,0,0,1-1.84-.88,4.83,4.83,0,0,0-1.28-.88c-.16,0-.48.32-.8.88a3,3,0,0,0-.48,1.2,2.47,2.47,0,0,1-1-1.2c-.16-.4-.24-.8-.4-1.2q-.48,0-1.68,1.92H702a12.3,12.3,0,0,1-.72-1.92,8.41,8.41,0,0,0-2.64-.48,11.43,11.43,0,0,0-1.84.24l-1.28-.08a8.9,8.9,0,0,1,1.6-1,5,5,0,0,1,2.32-.88.87.87,0,0,1,.4.08c.16,0,.24.08.4.08a2.41,2.41,0,0,0,1-.32c.48-.24.72-.4.8-.64a5.38,5.38,0,0,0,.08-1.44,5,5,0,0,0-1.36-3.84,7.82,7.82,0,0,0-3.92-1.6c-.48,1.76-1.84,2.56-4.08,2.56a2.87,2.87,0,0,1-2.16-1.28,4,4,0,0,1-1.12-2.4,3.38,3.38,0,0,1,1.44-2.8,3.68,3.68,0,0,1-1.12-2.4,3.07,3.07,0,0,1,.72-2,2.78,2.78,0,0,1,1.84-1,1.88,1.88,0,0,1,1-2,2.57,2.57,0,0,1-.48-1.76,3.44,3.44,0,0,1,1-2.48,3.51,3.51,0,0,1,2.48-1,3.38,3.38,0,0,1,2.64,1.12c.88-3,2.8-4.48,5.68-4.48a5.37,5.37,0,0,1,4,1.84c.4.48.64.72.64.72-.4,0-.16-.08.56-.24a8.51,8.51,0,0,1,1.6-.24,4.23,4.23,0,0,1,3.12,1.28,5.65,5.65,0,0,1,1.6,3,8.28,8.28,0,0,1,1,.24,1.76,1.76,0,0,1,1,1.76,3.31,3.31,0,0,1-.4.88,5.1,5.1,0,0,1,2.88,4.56,6.47,6.47,0,0,1-.64,2.24A2.47,2.47,0,0,1,721.28,282.44Zm-18.64,2v-.56a2.36,2.36,0,0,0-1-1.92,3.38,3.38,0,0,0-2.08-.88,4.53,4.53,0,0,0-2.32.56C698.8,281.56,700.56,282.52,702.64,284.44Zm-.8-5.6a7.61,7.61,0,0,1-1.2-1.6c-1.28.32-1.92.72-1.92,1.12a4.51,4.51,0,0,1,1.6.24A7.12,7.12,0,0,0,701.84,278.84Zm2.72-1.44v-2c-.72-.08-1.2-.16-1.28-.16V276Zm5.92-1.28c-.4-.16-1-.48-2.08-.88v3.92C709.84,278.36,710.56,277.32,710.48,276.12Zm2.48,5.36-1-1.2c-.64.4-1.2.88-1.84,1.28a9.3,9.3,0,0,0-1.6,1.44A15,15,0,0,1,713,281.48Z"/><g id="svg_128" data-name="svg 128"><path id="svg_129" data-name="svg 129" class="cls-6" d="M833.24,266.68a40,40,0,0,1-56.56,56.64"/><path id="svg_130" data-name="svg 130" class="cls-3" d="M776.68,323.32a40,40,0,0,1,56.56-56.64"/></g><path id="svg_131" data-name="svg 131" class="cls-2" d="M826.36,322a10.81,10.81,0,0,1-7.92,3.28,10.55,10.55,0,0,1-8.4-3.6,13,13,0,0,1-3-8.8c0-3.84,1.68-8.24,5-13.12a50.74,50.74,0,0,1,9.6-10.64,26.94,26.94,0,0,0-.8,5.28,12.18,12.18,0,0,0,2.24,7c1.84,2.72,3.28,4.72,4.24,6a11.8,11.8,0,0,1,2.24,6.64A11.12,11.12,0,0,1,826.36,322Zm-.08-12.32a5.3,5.3,0,0,0-2-2.56,3,3,0,0,1,.16,1,11.93,11.93,0,0,1-.72,3.44L823,313.8a1.75,1.75,0,0,0,2,2c1.44,0,2.16-1,2.16-2.8A7.5,7.5,0,0,0,826.28,309.64Z"/><path id="svg_132" data-name="svg 132" class="cls-2" d="M806.28,282.44a2.13,2.13,0,0,1-.72,1.6,2.26,2.26,0,0,1-1.6.72,2.36,2.36,0,0,1-2.16-1.36l-2.16-.08a10.2,10.2,0,0,0-2.64.56,7.45,7.45,0,0,0-2.48,1,5.23,5.23,0,0,0-.8,2.56,19.48,19.48,0,0,0-.24,2.4,3.16,3.16,0,0,0,.4,1.76,2.74,2.74,0,0,0,1.6,1,11,11,0,0,0,1.44.4,1.56,1.56,0,0,0,.56-.08H798a6.17,6.17,0,0,1,1.2.16c.64.16.88.4.8.72a6.48,6.48,0,0,0-2.24.24l1.28.64c0,.4-.48.56-1.52.56a9.18,9.18,0,0,1-1.12-.16,2.81,2.81,0,0,0-1-.16h-.56c0,.32-.16.72-.24,1.36a3.43,3.43,0,0,1-1.84-.88,4.83,4.83,0,0,0-1.28-.88c-.16,0-.48.32-.8.88a3,3,0,0,0-.48,1.2,2.47,2.47,0,0,1-1-1.2c-.16-.4-.24-.8-.4-1.2q-.48,0-1.68,1.92H787a12.3,12.3,0,0,1-.72-1.92,8.41,8.41,0,0,0-2.64-.48,11.43,11.43,0,0,0-1.84.24l-1.28-.08a8.9,8.9,0,0,1,1.6-1,5,5,0,0,1,2.32-.88.87.87,0,0,1,.4.08c.16,0,.24.08.4.08a2.41,2.41,0,0,0,1-.32c.48-.24.72-.4.8-.64a5.38,5.38,0,0,0,.08-1.44,5,5,0,0,0-1.36-3.84,7.82,7.82,0,0,0-3.92-1.6c-.48,1.76-1.84,2.56-4.08,2.56a2.87,2.87,0,0,1-2.16-1.28,4,4,0,0,1-1.12-2.4,3.38,3.38,0,0,1,1.44-2.8,3.68,3.68,0,0,1-1.12-2.4,3.07,3.07,0,0,1,.72-2,2.78,2.78,0,0,1,1.84-1,1.88,1.88,0,0,1,1-2,2.57,2.57,0,0,1-.48-1.76,3.44,3.44,0,0,1,1-2.48,3.51,3.51,0,0,1,2.48-1,3.38,3.38,0,0,1,2.64,1.12c.88-3,2.8-4.48,5.68-4.48a5.37,5.37,0,0,1,4,1.84c.4.48.64.72.64.72-.4,0-.16-.08.56-.24a8.51,8.51,0,0,1,1.6-.24,4.23,4.23,0,0,1,3.12,1.28,5.65,5.65,0,0,1,1.6,3,2.77,2.77,0,0,1,1,.24,1.76,1.76,0,0,1,1,1.76,3.31,3.31,0,0,1-.4.88,5.1,5.1,0,0,1,2.88,4.56,6.47,6.47,0,0,1-.64,2.24A2.47,2.47,0,0,1,806.28,282.44Zm-18.64,2v-.64a2.36,2.36,0,0,0-1-1.92,3.38,3.38,0,0,0-2.08-.88,4.53,4.53,0,0,0-2.32.56C783.8,281.56,785.56,282.52,787.64,284.44Zm-.8-5.6a7.61,7.61,0,0,1-1.2-1.6c-1.28.32-1.92.72-1.92,1.12a4.51,4.51,0,0,1,1.6.24C786,278.68,786.52,278.84,786.84,278.84Zm2.72-1.44v-2c-.72-.08-1.2-.16-1.28-.16V276Zm5.92-1.28c-.4-.16-1-.48-2.08-.88v3.92C794.84,278.28,795.56,277.32,795.48,276.12Zm2.48,5.36-1-1.2c-.64.4-1.2.88-1.84,1.28a9.3,9.3,0,0,0-1.6,1.44A15,15,0,0,1,798,281.48Z"/><g id="svg_133" data-name="svg 133"><path id="svg_134" data-name="svg 134" class="cls-7" d="M68.24,351.68a40,40,0,0,1-56.56,56.64"/><path id="svg_135" data-name="svg 135" class="cls-1" d="M11.68,408.32a40,40,0,0,1,56.56-56.64"/></g><path id="svg_136" data-name="svg 136" class="cls-2" d="M34.88,373.28,32.56,381h-19v-1.68c1-1,3-3.12,6.08-6.24,1.92-1.92,3.76-3.92,5.6-6,1-1,1.6-1.92,2.16-2.64a8.37,8.37,0,0,0,1.68-4.88,6.63,6.63,0,0,0-1.52-4.32,4.74,4.74,0,0,0-3.92-1.84c-3.44,0-6.16,2.32-8.08,7l-1.68-.64c2.32-6.56,5.92-9.84,11-9.84a8.44,8.44,0,0,1,6.24,2.48,8.16,8.16,0,0,1,2.56,6.16c0,3.12-1.76,6.16-5.36,9.2l-3.76,3.12a51.23,51.23,0,0,0-5.92,5.6,8.42,8.42,0,0,0-.64.72h9.92a5.71,5.71,0,0,0,3.44-.88,8.24,8.24,0,0,0,2-3h1.52Z"/><path id="svg_137" data-name="svg 137" class="cls-2" d="M70.4,398.48a14.12,14.12,0,0,0-3.84-3c-.48-.08-.88.16-1.36.8a1.67,1.67,0,0,1-1.84.72,8.79,8.79,0,0,1-1.84-.8,5.78,5.78,0,0,0-1.2,1.44,1.92,1.92,0,0,0,.4,1.28c.4.56.72.88,1,1a2.74,2.74,0,0,0,.88.08c.4,0,.64,0,.72.08.32.08.4.8.08,2.08a29.19,29.19,0,0,1-2.24,5.52c-.08-3.12-.48-4.8-1.36-5a4.1,4.1,0,0,0-.8.08,4.31,4.31,0,0,1-.88.08c-.8-.24-1.44-1.12-1.68-2.8-1.36-.08-2.24.4-2.48,1.52a1.58,1.58,0,0,0,.48,1.6c.48.48.64.8.64,1-.16.8-1.6,1.68-4.32,2.8-1.44.56-2.4,1-3,1.2a8.93,8.93,0,0,0,1.68-1.76,4.78,4.78,0,0,0,1.2-2.08q.12-.48-.72-1.44a2.35,2.35,0,0,1-.64-1.92,3.69,3.69,0,0,1,1-1.68,1.48,1.48,0,0,0-1.2-1c-1.12-.24-1.84,0-2,.72.16-.56,0-.16-.24,1.2-.24,1-1,1.28-2.48.88A30.34,30.34,0,0,1,38.88,399c3.2,0,4.88-.56,5.12-1.52,0,.08,0-.24.08-1.12s1-1.6,2.48-2a2.09,2.09,0,0,0-1.6-2.48q-.24-.12-1.2.72c-.64.48-1.12.72-1.52.56q-1.08-.24-2.16-2.88c-.32-.88-.88-2.16-1.6-3.92l1.76,1.52A6.35,6.35,0,0,0,42.16,389c.4.08.88-.16,1.44-.8a1.7,1.7,0,0,1,1.76-.72,9.82,9.82,0,0,1,1.6,1,4.54,4.54,0,0,0,1.28-1.68,2,2,0,0,0-.32-1.36q-.48-.84-1-1a2.12,2.12,0,0,0-.72,0h-.72c-.48-.16-.64-.8-.32-2.16.08-.32.88-2.24,2.4-5.68a6.44,6.44,0,0,0,0,2.56c.16,1.6.56,2.4,1.2,2.56a3.09,3.09,0,0,0,.72-.08,4.31,4.31,0,0,1,.88-.08A1.91,1.91,0,0,1,51.76,383l.4,1.36a1.79,1.79,0,0,0,1.68-.32,2.33,2.33,0,0,0,1-1.44,1.67,1.67,0,0,0-.48-1.68c-.48-.48-.64-.8-.64-1q.24-1,3.6-2.4c1.84-.8,3-1.2,3.44-1.36-1.68,1.36-2.56,2.48-2.72,3.2a2.2,2.2,0,0,0,.4,1.44,3.71,3.71,0,0,1,.72,1.44A4,4,0,0,1,58.4,385a4.74,4.74,0,0,0,1.6,1.28c.8.24,1.36-.16,1.6-1a6.37,6.37,0,0,0,.08-.88,1.28,1.28,0,0,1,.16-.8c.24-.4,1-.4,2.56,0a48.06,48.06,0,0,1,5.6,2.16c-.64,0-1.68.08-3,.08-1.2.08-1.92.32-2,.72a2.53,2.53,0,0,0,0,1.12,2.24,2.24,0,0,1-.08,1.12c-.08.4-.48.72-1,1l-1.76.72a6,6,0,0,0,.4,1.28,1.51,1.51,0,0,0,1,.8q.48.12,1.2-.72a1.4,1.4,0,0,1,1.6-.56c.8.16,1.52,1.12,2.16,2.8C69,395.12,69.6,396.56,70.4,398.48Zm-9-4.8a6.55,6.55,0,0,0-.88-5.28,7,7,0,0,0-4.32-3.2,6.73,6.73,0,0,0-5.36.88,7,7,0,0,0-3.2,4.32,6.55,6.55,0,0,0,.88,5.28,7.12,7.12,0,0,0,4.4,3.2,6.86,6.86,0,0,0,5.36-.72A6.51,6.51,0,0,0,61.36,393.68Zm-.64-.16a5.77,5.77,0,0,1-2.8,3.92,5.88,5.88,0,0,1-4.8.64,6.14,6.14,0,0,1-3.92-2.8,5.92,5.92,0,0,1-.8-4.8,5.84,5.84,0,0,1,2.88-3.84,6.33,6.33,0,0,1,4.8-.72,6.29,6.29,0,0,1,4.64,7.6Z"/><g id="svg_138" data-name="svg 138"><path id="svg_139" data-name="svg 139" class="cls-6" d="M153.24,351.68a40,40,0,0,1-56.56,56.64"/><path id="svg_140" data-name="svg 140" class="cls-1" d="M96.68,408.32a40.05,40.05,0,0,1,56.64-56.64"/></g><path id="svg_141" data-name="svg 141" class="cls-2" d="M146.36,407a10.81,10.81,0,0,1-7.92,3.28,10.55,10.55,0,0,1-8.4-3.6,13,13,0,0,1-3-8.8c0-3.84,1.68-8.24,5-13.12a50.74,50.74,0,0,1,9.6-10.64,26.94,26.94,0,0,0-.8,5.28,12.18,12.18,0,0,0,2.24,7c1.84,2.72,3.28,4.72,4.24,6a11.8,11.8,0,0,1,2.24,6.64A11.12,11.12,0,0,1,146.36,407Zm0-12.32a5.3,5.3,0,0,0-2-2.56,3,3,0,0,1,.16,1,11.93,11.93,0,0,1-.72,3.44l-.72,2.32a1.75,1.75,0,0,0,2,2c1.44,0,2.16-1,2.16-2.8A10.47,10.47,0,0,0,146.36,394.64Z"/><path id="svg_142" data-name="svg 142" class="cls-2" d="M119.88,373.28,117.56,381h-19v-1.68c1-1,3-3.12,6.08-6.24,1.92-1.92,3.76-3.92,5.6-6,1-1,1.6-1.92,2.16-2.64a8.37,8.37,0,0,0,1.68-4.88,6.63,6.63,0,0,0-1.52-4.32,4.74,4.74,0,0,0-3.92-1.84c-3.44,0-6.16,2.32-8.08,7l-1.68-.64c2.32-6.56,5.92-9.84,11-9.84a8.44,8.44,0,0,1,6.24,2.48,8.16,8.16,0,0,1,2.56,6.16c0,3.12-1.76,6.16-5.36,9.2l-3.76,3.12a51.23,51.23,0,0,0-5.92,5.6,8.42,8.42,0,0,0-.64.72h9.92a5.71,5.71,0,0,0,3.44-.88,8.24,8.24,0,0,0,2-3Z"/><g id="svg_143" data-name="svg 143"><path id="svg_144" data-name="svg 144" class="cls-5" d="M238.24,351.68a40,40,0,0,1-56.56,56.64"/><path id="svg_145" data-name="svg 145" class="cls-1" d="M181.68,408.32a40.05,40.05,0,0,1,56.64-56.64"/></g><path id="svg_146" data-name="svg 146" class="cls-2" d="M204.88,373.28,202.56,381h-19v-1.68c1-1,3-3.12,6.08-6.24,1.92-1.92,3.76-3.92,5.6-6,1-1,1.6-1.92,2.16-2.64a8.37,8.37,0,0,0,1.68-4.88,6.63,6.63,0,0,0-1.52-4.32,4.74,4.74,0,0,0-3.92-1.84c-3.44,0-6.16,2.32-8.08,7l-1.68-.64c2.32-6.56,5.92-9.84,11-9.84a8.44,8.44,0,0,1,6.24,2.48,8.16,8.16,0,0,1,2.56,6.16c0,3.12-1.76,6.16-5.36,9.2l-3.76,3.12a51.23,51.23,0,0,0-5.92,5.6,8.42,8.42,0,0,0-.64.72h9.92a5.71,5.71,0,0,0,3.44-.88,8.24,8.24,0,0,0,2-3h1.52Z"/><path id="svg_147" data-name="svg 147" class="cls-2" d="M241.68,392.8a4.52,4.52,0,0,1-2.32,4.4,22.51,22.51,0,0,1-4.32,1c-1.6.24-2.32.88-2.32,1.84v4c0,.16.08.64.16,1.52l.16,1.6a12.24,12.24,0,0,1-.32,2.4c-.64.16-1.36.24-2.16.48a11.87,11.87,0,0,1-.4-2,1.46,1.46,0,0,1,.16-.72,4.06,4.06,0,0,0,.16-.72,9.66,9.66,0,0,0-.64-1.92H229a.85.85,0,0,0-.08.64,4.94,4.94,0,0,1,.16,1.44c-.56.4-1.36.88-2.32,1.6-.24-.08-.32-.08-.24-.08v-3.52a.36.36,0,0,0-.48-.16h-.56L225,409.2h-1.68q-.36-1.68-1.2-4.8h-.4a12.56,12.56,0,0,0-.56,1.84,6.7,6.7,0,0,0,.16.8,6.7,6.7,0,0,1,.16.8,3.52,3.52,0,0,1-.08.72l-.16,1.2a.29.29,0,0,1-.24.08,2.43,2.43,0,0,1-2-.72,3.24,3.24,0,0,1-.4-2.08l.4-5.92a.87.87,0,0,1,.08-.4.6.6,0,0,0,.08-.32,3.89,3.89,0,0,0-.8-1.6c-.08,0-.64-.16-1.52-.32-.56-.16-1.68-.32-3.28-.72-2.24-.4-3.36-2.24-3.36-5.44a14.77,14.77,0,0,1,5.92-11.92c.16.88.48,2.08.8,3.52l1.92.48c.16.08,1.2.4,3,1.12a35.12,35.12,0,0,1-3.6-2.72,5.07,5.07,0,0,1-.8-3.28c0-.4.64-.8,1.84-1.28a10.5,10.5,0,0,1,2.48-.8,30.92,30.92,0,0,1,4.08-.32c4.08,0,7.44,1,9.92,3.12a14.12,14.12,0,0,1-4.24,3,8.31,8.31,0,0,0,3.44-1q2.28-1,1.92-1c.24,0,.8.56,1.6,1.6.56.8,1,1.52,1.44,2.08a17.68,17.68,0,0,1,2.08,6.08,8.29,8.29,0,0,0,.08,1.6v.08Zm-18.8.88a5.78,5.78,0,0,0-1.84-4,5.41,5.41,0,0,0-3.92-1.92,4.33,4.33,0,0,0-3.28,1.6,5.1,5.1,0,0,0-1.44,3.52A2.08,2.08,0,0,0,214,395a13.05,13.05,0,0,0,2.88.32h2.72C221.76,395.44,222.88,394.88,222.88,393.68Zm5.36,6.08v-1.52c-.24-.4-.48-.88-.72-1.36a15.1,15.1,0,0,0-1.12-2.72l-.56,5.76c0,.48-.08.72-.32.72s-.24,0-.32-.08c-.24-3.44-.32-5-.32-4.48V394.4c-.08-.08-.16-.16-.24-.16q-1.68,1.68-1.68,5.52a5.66,5.66,0,0,0,.4,2.64,6.08,6.08,0,0,0,.88-.32,3.34,3.34,0,0,1,1.12-.08,5.39,5.39,0,0,1,2.24.56C228.08,402.4,228.24,401.52,228.24,399.76Zm11.12-6.8a5.1,5.1,0,0,0-1.44-3.52,4.4,4.4,0,0,0-3.36-1.52,5.25,5.25,0,0,0-3.84,1.92,5.64,5.64,0,0,0-1.76,3.92,1.48,1.48,0,0,0,1.68,1.68h5.68C238.24,395.36,239.36,394.56,239.36,393Z"/><g id="svg_148" data-name="svg 148"><path id="svg_149" data-name="svg 149" class="cls-4" d="M323.24,351.68a40,40,0,0,1-56.56,56.64"/><path id="svg_150" data-name="svg 150" class="cls-1" d="M266.68,408.32a40,40,0,0,1,56.56-56.64"/></g><path id="svg_151" data-name="svg 151" class="cls-2" d="M325.64,399.52c-1.36,3.28-4.08,4.88-8.16,4.88a8.63,8.63,0,0,0-2.4.32c-1.28.24-2,.64-2,1.2,0,.16.08.32.32.56s.4.32.56.32c-.8,0-.24,0,1.6.08s3,.08,3.44.08c-2.72,1.6-7.28,2.32-13.6,2.24a6.68,6.68,0,0,1-5.36-2.8,8.68,8.68,0,0,1-2.24-5.76,8,8,0,0,1,2.24-5.76,7.43,7.43,0,0,1,5.68-2.4,7.25,7.25,0,0,1,2,.32,6.37,6.37,0,0,0,1.68.32,9.68,9.68,0,0,0,4.32-1.44,14.67,14.67,0,0,0,2.4-1.44c-.32,3.28-1.44,5.44-3.28,6.64-1.36.8-2,1.52-2,2.32a1.15,1.15,0,0,0,.88,1.12,2.93,2.93,0,0,0,1.44.32,3.17,3.17,0,0,0,2.4-1.52,3.79,3.79,0,0,0,1-2.72,16.75,16.75,0,0,1,.16-3.36,5,5,0,0,1,.64-1.36,3.14,3.14,0,0,1,1-1,4.7,4.7,0,0,1-.32,1.44,4.28,4.28,0,0,0-.32,1.44,2.06,2.06,0,0,0,.56,1.6,3.77,3.77,0,0,0,1.52-2.08,8,8,0,0,0,.64-2.64,6,6,0,0,1-3.76-1.76,5,5,0,0,1-1.84-3.68,1.76,1.76,0,0,1,.08-.64,12.69,12.69,0,0,0,.88,1.28q.84,1.2,1.2,1.2c.4,0,.56-.4.56-1.2a4.71,4.71,0,0,0-.8-2.72,2.61,2.61,0,0,0-2.32-1.44,5,5,0,0,0-2,.72,5.1,5.1,0,0,1-2.4.72,22.49,22.49,0,0,1-2.88-.88c3-.48,4.56-1,4.56-1.36q0-1.56-6.24-2.16c-.4,0-1.12-.08-2.24-.16a7.92,7.92,0,0,1,2.64-.48c1.44-.16,2.4-.24,3-.24q11.16,0,14.16,10.8a2,2,0,0,0,.48-1.44,9.38,9.38,0,0,0-.72-3.2c-.16-.48-.48-1.28-.88-2.24,2.56,3.28,3.84,6.32,3.84,9.28a8.9,8.9,0,0,1-1,4.16,18,18,0,0,1-2.64,3.28,22.15,22.15,0,0,0-2.64,3,30.66,30.66,0,0,0,3.36-1,10.2,10.2,0,0,0,3.2-2.4A3.42,3.42,0,0,1,325.64,399.52Zm-20.4-18.4c0,.56-.32.88-1,1l-1.2.16a8.14,8.14,0,0,0-1.92,2.56c-.08-.48-.24-1.12-.4-2-.32,0-.72.32-1.44.72-.32.24-.72.56-1.36,1a7,7,0,0,1,1.84-3.44,4.64,4.64,0,0,1,3.28-1.92C304.52,379.44,305.24,380,305.24,381.12Zm8.16,4.32a1.67,1.67,0,0,1-.88,1.36,3.49,3.49,0,0,1-1.68.56,2.4,2.4,0,0,1-2-1.28,5.15,5.15,0,0,0-2.24-2,.73.73,0,0,1,.56-.24,4.49,4.49,0,0,1,1.44.64,4.32,4.32,0,0,0,1.28.64c.16,0,.4-.24.8-.64a1.52,1.52,0,0,1,1.2-.64A1.41,1.41,0,0,1,313.4,385.44Z"/><path id="svg_152" data-name="svg 152" class="cls-2" d="M289.88,373.28,287.56,381h-19v-1.68c1-1,3-3.12,6.08-6.24,1.92-1.92,3.76-3.92,5.6-6,1-1,1.6-1.92,2.16-2.64a8.37,8.37,0,0,0,1.68-4.88,6.63,6.63,0,0,0-1.52-4.32,4.74,4.74,0,0,0-3.92-1.84c-3.44,0-6.16,2.32-8.08,7l-1.68-.64c2.32-6.56,5.92-9.84,11-9.84a8.44,8.44,0,0,1,6.24,2.48,8.16,8.16,0,0,1,2.56,6.16c0,3.12-1.76,6.16-5.36,9.2l-3.76,3.12a51.23,51.23,0,0,0-5.92,5.6,8.42,8.42,0,0,0-.64.72h9.92a5.71,5.71,0,0,0,3.44-.88,8.24,8.24,0,0,0,2-3Z"/><g id="svg_153" data-name="svg 153"><path id="svg_154" data-name="svg 154" class="cls-3" d="M408.24,351.68a40,40,0,0,1-56.56,56.64"/><path id="svg_155" data-name="svg 155" class="cls-1" d="M351.68,408.32a40,40,0,0,1,56.56-56.64"/></g><path id="svg_156" data-name="svg 156" class="cls-2" d="M374.88,373.28,372.56,381h-19v-1.68c1-1,3-3.12,6.08-6.24,1.92-1.92,3.76-3.92,5.6-6,1-1,1.6-1.92,2.16-2.64a8.37,8.37,0,0,0,1.68-4.88,6.63,6.63,0,0,0-1.52-4.32,4.74,4.74,0,0,0-3.92-1.84c-3.44,0-6.16,2.32-8.08,7l-1.68-.64c2.32-6.56,5.92-9.84,11-9.84a8.44,8.44,0,0,1,6.24,2.48,8.16,8.16,0,0,1,2.56,6.16c0,3.12-1.76,6.16-5.36,9.2l-3.76,3.12a51.23,51.23,0,0,0-5.92,5.6,8.42,8.42,0,0,0-.64.72h9.92a5.71,5.71,0,0,0,3.44-.88,8.24,8.24,0,0,0,2-3h1.52Z"/><path id="svg_157" data-name="svg 157" class="cls-2" d="M411.6,394.08a2.13,2.13,0,0,1-.72,1.6,2.26,2.26,0,0,1-1.6.72,2.36,2.36,0,0,1-2.16-1.36L405,395a10.2,10.2,0,0,0-2.64.56,7.45,7.45,0,0,0-2.48,1A5.23,5.23,0,0,0,399,399a19.48,19.48,0,0,0-.24,2.4,3.16,3.16,0,0,0,.4,1.76,2.74,2.74,0,0,0,1.6,1,11,11,0,0,0,1.44.4,1.56,1.56,0,0,0,.56-.08h.56a6.17,6.17,0,0,1,1.2.16c.64.16.88.4.8.72a6.48,6.48,0,0,0-2.24.24l1.28.64c0,.4-.48.56-1.52.56a9.18,9.18,0,0,1-1.12-.16,2.81,2.81,0,0,0-1-.16h-.56c0,.32-.16.72-.24,1.36a3.43,3.43,0,0,1-1.84-.88,4.82,4.82,0,0,0-1.28-.88c-.16,0-.48.32-.8.88a3,3,0,0,0-.48,1.2,2.47,2.47,0,0,1-1-1.2c-.16-.4-.24-.8-.4-1.2q-.48,0-1.68,1.92h-.24a12.29,12.29,0,0,1-.72-1.92,8.41,8.41,0,0,0-2.64-.48,11.43,11.43,0,0,0-1.84.24l-1.28-.08a8.89,8.89,0,0,1,1.6-1,5,5,0,0,1,2.32-.88.87.87,0,0,1,.4.08c.16,0,.24.08.4.08a2.41,2.41,0,0,0,1-.32c.48-.24.72-.4.8-.64a5.38,5.38,0,0,0,.08-1.44,5,5,0,0,0-1.36-3.84,7.82,7.82,0,0,0-3.92-1.6c-.48,1.76-1.84,2.56-4.08,2.56a2.87,2.87,0,0,1-2.16-1.28,4,4,0,0,1-1.12-2.4,3.38,3.38,0,0,1,1.44-2.8,3.68,3.68,0,0,1-1.12-2.4,3.07,3.07,0,0,1,.72-2,2.78,2.78,0,0,1,1.84-1,1.88,1.88,0,0,1,1-2,2.44,2.44,0,0,1-.48-1.76,3.29,3.29,0,0,1,3.44-3.44,3.38,3.38,0,0,1,2.64,1.12c.88-3,2.8-4.48,5.68-4.48a5.37,5.37,0,0,1,4,1.84c.4.48.64.72.64.72-.4,0-.16-.08.56-.24a8.51,8.51,0,0,1,1.6-.24,4.23,4.23,0,0,1,3.12,1.28,5.65,5.65,0,0,1,1.6,3,8.28,8.28,0,0,1,1,.24,1.76,1.76,0,0,1,1,1.76,3.31,3.31,0,0,1-.4.88,5.1,5.1,0,0,1,2.88,4.56,6.47,6.47,0,0,1-.64,2.24A2.28,2.28,0,0,1,411.6,394.08Zm-18.64,2v-.56a2.36,2.36,0,0,0-1-1.92,3.38,3.38,0,0,0-2.08-.88,4.53,4.53,0,0,0-2.32.56C389.12,393.2,390.88,394.16,393,396.08Zm-.88-5.6a7.61,7.61,0,0,1-1.2-1.6c-1.28.32-1.92.72-1.92,1.12a4.51,4.51,0,0,1,1.6.24A8.94,8.94,0,0,0,392.08,390.48Zm2.8-1.44v-2c-.72-.08-1.2-.16-1.28-.16v.72Zm5.92-1.28c-.4-.16-1-.48-2.08-.88v3.92A3.44,3.44,0,0,0,400.8,387.76Zm2.48,5.36-1-1.2c-.64.4-1.2.88-1.84,1.28a9.3,9.3,0,0,0-1.6,1.44A15,15,0,0,1,403.28,393.12Z"/><g id="svg_168" data-name="svg 168"><circle id="svg_169" data-name="svg 169" class="cls-1" cx="40" cy="465" r="40"/></g><path id="svg_170" data-name="svg 170" class="cls-2" d="M68.24,472.12H39.44L50,464.6A21.23,21.23,0,0,0,36.4,460q-3.84,0-5.28,1.44c-1,1-1.44,2.72-1.44,5.36,0,7.12,3.68,14.64,11,22.72l-8.32,8.4c-9.68-11.76-14.48-22.24-14.48-31.52q0-8.28,5-13.2c3.36-3.28,7.76-4.88,13.36-4.88q10.2,0,22.08,7.68l6.16-10.56Z"/><g id="svg_171" data-name="svg 171"><circle id="svg_172" data-name="svg 172" class="cls-2" cx="125" cy="465" r="40"/></g><path id="svg_173" data-name="svg 173" class="cls-8" d="M148.12,444.44,138,450.36c5,7.68,7.36,14.72,7.36,21.2,0,5.28-1.6,9.6-4.72,12.8s-7.36,4.8-12.72,4.8q-13.32,0-30.24-13.92l8.08-8c7.76,7,15,10.48,21.76,10.48,2.48,0,4.16-.48,5.12-1.36s1.44-2.56,1.44-5a20.47,20.47,0,0,0-4.48-13l-7.2,10.08v-27.6Z"/><g id="svg_166" data-name="svg 166"><circle id="svg_167" data-name="svg 167" class="cls-7" cx="465" cy="380" r="40"/></g><path id="svg_209" data-name="svg 209" class="cls-9" d="M487.08,379.92a18.51,18.51,0,0,0-4-11.92c-1.28-1.44-2.32-3-3.68-4.4-3-3-7.52-3.2-11.12-5-.24-1.92-.88-3.76-.48-5.68a2.44,2.44,0,0,0,0-1.84c-1-2.16-.16-4.56-.32-6.8-.16-1.2-.08-2.64-1.2-3.36a36,36,0,0,1-1.92,7.12c-.32,1.84-.32,3.76-1.12,5.44.48,1.76-.48,3.2-1.6,4.48-2.4,1.2-5.2,1.52-7.28,3.28a33.49,33.49,0,0,1-4.72,3.36c-1.2,1.52-2.64,3-3.12,5-2.24,2.64-2.48,6.24-3.76,9.36,0,4.64.88,9.6,3.84,13.36,2.16,1.76,3.6,4.08,5.68,5.84,2,1.2,4.24,2.24,6.32,3.28,1.36.32,2.8.48,4.16.88,1.12,5.68,1.84,11.52,4.08,16.88.72-2.24.64-4.56,1.28-6.8.88-3.28-1-6.72.08-10,1.52-1.36,4.16-.48,5.84-1.68,3.28-2,6.72-4,9.12-7,.88-1.76,2.72-3.12,2.72-5.2C486,385.52,487.72,382.88,487.08,379.92Zm-24.32,17.6a18.38,18.38,0,0,1-6.56-3.12c-2.16-1.44-3-4.08-5-5.52-2-2.4-1.52-5.6-2.4-8.4.32-1.92.72-3.92.88-5.84,1-1.6,2.48-2.8,2.88-4.72,1.44-2,3.6-3.44,5.28-5.2,1.28-1.44,3.28-.8,4.88-.88a13.79,13.79,0,0,0,.08,4.8,9.18,9.18,0,0,1,.48,3c-.32,2.16.48,4.32-.08,6.48-1.12,4.48.08,9,.24,13.44A30.58,30.58,0,0,1,462.76,397.52Zm18-8.48a39,39,0,0,0-4.32,3.84,27.25,27.25,0,0,1-7.6,4.24,14.18,14.18,0,0,0-.16-6.08c-1.6-4.48.32-9.12.72-13.68-.32-2.72,0-5.6-1.28-8-.16-1.84.64-3.68,1.2-5.44a20.12,20.12,0,0,1,5.2,3c1.92,1.44,4.8,2.32,5.2,5,.24,1.76,2.08,2.8,2.08,4.56C481.72,380.64,482.28,385,480.76,389Z"/><g id="svg_164" data-name="svg 164"><circle id="svg_165" data-name="svg 165" class="cls-6" cx="550" cy="380" r="40"/></g><path id="svg_210" data-name="svg 210" class="cls-9" d="M572.08,379.92a18.51,18.51,0,0,0-4-11.92c-1.28-1.44-2.32-3-3.68-4.4-3-3-7.52-3.2-11.12-5-.24-1.92-.88-3.76-.48-5.68a2.44,2.44,0,0,0,0-1.84c-1-2.16-.16-4.56-.32-6.8-.16-1.2-.08-2.64-1.2-3.36a36,36,0,0,1-1.92,7.12c-.32,1.84-.32,3.76-1.12,5.44.48,1.76-.48,3.2-1.6,4.48-2.4,1.2-5.2,1.52-7.28,3.28a33.49,33.49,0,0,1-4.72,3.36c-1.2,1.52-2.64,3-3.12,5-2.24,2.64-2.48,6.24-3.76,9.36,0,4.64.88,9.6,3.84,13.36,2.16,1.76,3.6,4.08,5.68,5.84,2,1.2,4.24,2.24,6.32,3.28,1.36.32,2.8.48,4.16.88,1.12,5.68,1.84,11.52,4.08,16.88.72-2.24.64-4.56,1.28-6.8.88-3.28-1-6.72.08-10,1.52-1.36,4.16-.48,5.84-1.68,3.28-2,6.72-4,9.12-7,.88-1.76,2.72-3.12,2.72-5.2C571,385.52,572.72,382.88,572.08,379.92Zm-24.32,17.6a18.38,18.38,0,0,1-6.56-3.12c-2.16-1.44-3-4.08-5-5.52-2-2.4-1.52-5.6-2.4-8.4.32-1.92.72-3.92.88-5.84,1-1.6,2.48-2.8,2.88-4.72,1.44-2,3.6-3.44,5.28-5.2,1.28-1.44,3.28-.8,4.88-.88a13.79,13.79,0,0,0,.08,4.8,9.18,9.18,0,0,1,.48,3c-.32,2.16.48,4.32-.08,6.48-1.12,4.48.08,9,.24,13.44A30.58,30.58,0,0,1,547.76,397.52Zm18-8.48a39,39,0,0,0-4.32,3.84,27.25,27.25,0,0,1-7.6,4.24,14.18,14.18,0,0,0-.16-6.08c-1.6-4.48.32-9.12.72-13.68-.32-2.72,0-5.6-1.28-8-.16-1.84.64-3.68,1.2-5.44a20.12,20.12,0,0,1,5.2,3c1.92,1.44,4.8,2.32,5.2,5,.24,1.76,2.08,2.8,2.08,4.56C566.72,380.64,567.28,385,565.76,389Z"/><g id="svg_162" data-name="svg 162"><circle id="svg_163" data-name="svg 163" class="cls-5" cx="635" cy="380" r="40"/></g><path id="svg_211" data-name="svg 211" class="cls-9" d="M657.08,379.92a18.51,18.51,0,0,0-4-11.92c-1.28-1.44-2.32-3-3.68-4.4-3-3-7.52-3.2-11.12-5-.24-1.92-.88-3.76-.48-5.68a2.44,2.44,0,0,0,0-1.84c-1-2.16-.16-4.56-.32-6.8-.16-1.2-.08-2.64-1.2-3.36a36,36,0,0,1-1.92,7.12c-.32,1.84-.32,3.76-1.12,5.44.48,1.76-.48,3.2-1.6,4.48-2.4,1.2-5.2,1.52-7.28,3.28a33.49,33.49,0,0,1-4.72,3.36c-1.2,1.52-2.64,3-3.12,5-2.24,2.64-2.48,6.24-3.76,9.36,0,4.64.88,9.6,3.84,13.36,2.16,1.76,3.6,4.08,5.68,5.84,2,1.2,4.24,2.24,6.32,3.28,1.36.32,2.8.48,4.16.88,1.12,5.68,1.84,11.52,4.08,16.88.72-2.24.64-4.56,1.28-6.8.88-3.28-1-6.72.08-10,1.52-1.36,4.16-.48,5.84-1.68,3.28-2,6.72-4,9.12-7,.88-1.76,2.72-3.12,2.72-5.2C656,385.52,657.72,382.88,657.08,379.92Zm-24.32,17.6a18.38,18.38,0,0,1-6.56-3.12c-2.16-1.44-3-4.08-5-5.52-2-2.4-1.52-5.6-2.4-8.4.32-1.92.72-3.92.88-5.84,1-1.6,2.48-2.8,2.88-4.72,1.44-2,3.6-3.44,5.28-5.2,1.28-1.44,3.28-.8,4.88-.88a13.79,13.79,0,0,0,.08,4.8,9.18,9.18,0,0,1,.48,3c-.32,2.16.48,4.32-.08,6.48-1.12,4.48.08,9,.24,13.44A30.58,30.58,0,0,1,632.76,397.52Zm18-8.48a39,39,0,0,0-4.32,3.84,27.25,27.25,0,0,1-7.6,4.24,14.18,14.18,0,0,0-.16-6.08c-1.6-4.48.32-9.12.72-13.68-.32-2.72,0-5.6-1.28-8-.16-1.84.64-3.68,1.2-5.44a20.12,20.12,0,0,1,5.2,3c1.92,1.44,4.8,2.32,5.2,5,.24,1.76,2.08,2.8,2.08,4.56C651.72,380.64,652.28,385,650.76,389Z"/><g id="svg_160" data-name="svg 160"><circle id="svg_161" data-name="svg 161" class="cls-4" cx="720" cy="380" r="40"/></g><path id="svg_212" data-name="svg 212" class="cls-9" d="M742.08,379.92a18.51,18.51,0,0,0-4-11.92c-1.28-1.44-2.32-3-3.68-4.4-3-3-7.52-3.2-11.12-5-.24-1.92-.88-3.76-.48-5.68a2.44,2.44,0,0,0,0-1.84c-1-2.16-.16-4.56-.32-6.8-.16-1.2-.08-2.64-1.2-3.36a36,36,0,0,1-1.92,7.12c-.32,1.84-.32,3.76-1.12,5.44.48,1.76-.48,3.2-1.6,4.48-2.4,1.2-5.2,1.52-7.28,3.28a33.49,33.49,0,0,1-4.72,3.36c-1.2,1.52-2.64,3-3.12,5-2.24,2.64-2.48,6.24-3.76,9.36,0,4.64.88,9.6,3.84,13.36,2.16,1.76,3.6,4.08,5.68,5.84,2,1.2,4.24,2.24,6.32,3.28,1.36.32,2.8.48,4.16.88,1.12,5.68,1.84,11.52,4.08,16.88.72-2.24.64-4.56,1.28-6.8.88-3.28-1-6.72.08-10,1.52-1.36,4.16-.48,5.84-1.68,3.28-2,6.72-4,9.12-7,.88-1.76,2.72-3.12,2.72-5.2C741,385.52,742.72,382.88,742.08,379.92Zm-24.32,17.6a18.38,18.38,0,0,1-6.56-3.12c-2.16-1.44-3-4.08-5-5.52-2-2.4-1.52-5.6-2.4-8.4.32-1.92.72-3.92.88-5.84,1-1.6,2.48-2.8,2.88-4.72,1.44-2,3.6-3.44,5.28-5.2,1.28-1.44,3.28-.8,4.88-.88a13.79,13.79,0,0,0,.08,4.8,9.18,9.18,0,0,1,.48,3c-.32,2.16.48,4.32-.08,6.48-1.12,4.48.08,9,.24,13.44A30.58,30.58,0,0,1,717.76,397.52Zm18-8.48a39,39,0,0,0-4.32,3.84,27.25,27.25,0,0,1-7.6,4.24,14.18,14.18,0,0,0-.16-6.08c-1.6-4.48.32-9.12.72-13.68-.32-2.72,0-5.6-1.28-8-.16-1.84.64-3.68,1.2-5.44a20.12,20.12,0,0,1,5.2,3c1.92,1.44,4.8,2.32,5.2,5,.24,1.76,2.08,2.8,2.08,4.56C736.72,380.64,737.28,385,735.76,389Z"/><g id="svg_158" data-name="svg 158"><path id="svg_159" data-name="svg 159" class="cls-3" d="M845,380a40,40,0,1,1-40-40A40,40,0,0,1,845,380Z"/></g><path id="svg_213" data-name="svg 213" class="cls-9" d="M827.08,380.46a18.51,18.51,0,0,0-3.71-12c-1.24-1.47-2.25-3.1-3.57-4.49-3-3-7.44-3.38-11-5.31-.19-1.93-.79-3.78-.34-5.69a2.44,2.44,0,0,0,0-1.84c-.91-2.18,0-4.56-.15-6.81-.13-1.2,0-2.64-1.12-3.39a36,36,0,0,1-2.09,7.07c-.36,1.83-.41,3.75-1.25,5.41.44,1.77-.56,3.19-1.71,4.44-2.43,1.14-5.24,1.39-7.36,3.1a33.49,33.49,0,0,1-4.8,3.24c-1.24,1.49-2.71,3-3.24,4.88-2.3,2.58-2.63,6.18-4,9.27-.11,4.64.65,9.62,3.51,13.45,2.12,1.81,3.5,4.17,5.54,6,2,1.25,4.18,2.34,6.24,3.43,1.35.35,2.79.55,4.14,1,1,5.71,1.56,11.56,3.67,17,.77-2.22.75-4.54,1.45-6.77,1-3.26-.8-6.74.32-10,1.55-1.32,4.17-.38,5.88-1.54,3.33-1.92,6.82-3.84,9.29-6.82.92-1.74,2.8-3.05,2.85-5.13C825.9,386,827.64,383.43,827.08,380.46Zm-24.74,17a18.38,18.38,0,0,1-6.48-3.28c-2.12-1.49-2.86-4.15-4.9-5.64-1.94-2.45-1.38-5.64-2.19-8.46.37-1.91.82-3.9,1-5.82,1-1.58,2.55-2.74,3-4.65,1.49-2,3.68-3.35,5.4-5.07,1.31-1.41,3.3-.72,4.9-.76a13.79,13.79,0,0,0,0,4.8,9.18,9.18,0,0,1,.41,3c-.37,2.15.37,4.33-.24,6.48-1.23,4.45-.14,9-.09,13.44A30.58,30.58,0,0,1,802.33,397.46Zm18.2-8a39,39,0,0,0-4.41,3.73,27.25,27.25,0,0,1-7.7,4.05,14.18,14.18,0,0,0,0-6.08c-1.49-4.52.54-9.11,1.05-13.66-.25-2.73.14-5.6-1.08-8-.12-1.84.73-3.66,1.33-5.41a20.12,20.12,0,0,1,5.12,3.17c1.88,1.49,4.74,2.44,5.08,5.09.2,1.77,2,2.85,2,4.61C821.7,381,822.15,385.46,820.54,389.42Z"/><g id="svg_231" data-name="svg 231"><g id="svg_232" data-name="svg 232"><path id="svg_233" data-name="svg 233" class="cls-10" d="M250,210a40,40,0,1,1-40-40A40,40,0,0,1,250,210Z"/></g><g id="svg_234" data-name="svg 234"><path id="svg_235" data-name="svg 235" class="cls-2" d="M213.92,222.56c0,3.2.56,5.44,1.6,6.72s2.8,1.92,5.28,1.92l.56-.08V234h-23v-2.88H199c2.48.08,4.24-.56,5.28-1.84s1.6-3.52,1.6-6.64v-10L191.28,191.2c-.56-.8-1.12-1.52-1.6-2.08s-.88-1-1.28-1.44a4.83,4.83,0,0,0-2.08-1.12,17.18,17.18,0,0,0-2.8-.56v-2.88h22.4V186a13.08,13.08,0,0,0-4.56,1,2.37,2.37,0,0,0-1.2,2.32,3.71,3.71,0,0,0,.32,1.52,9.92,9.92,0,0,0,.8,1.6l11.36,16.48L221,196.72a14.47,14.47,0,0,0,1.68-2.88,8.68,8.68,0,0,0,.64-2.24V191a4.25,4.25,0,0,0-1.28-3.44,8.56,8.56,0,0,0-4.4-1.44V183.2h18.48v2.88a12.79,12.79,0,0,0-1.68.4,6.06,6.06,0,0,0-1.44.72,9.73,9.73,0,0,0-2.48,2.16,38.43,38.43,0,0,0-3,4.08l-13.68,19.44.16,9.68Z"/></g></g><g id="svg_236" data-name="svg 236"><g id="svg_237" data-name="svg 237"><path id="svg_238" data-name="svg 238" class="cls-10" d="M335,210a40,40,0,1,1-40-40A40,40,0,0,1,335,210Z"/></g><g id="svg_239" data-name="svg 239"><path id="svg_240" data-name="svg 240" class="cls-2" d="M314.52,234h-43v-2.16l34.08-45.76h-15.2a20.21,20.21,0,0,0-5.76.8,9,9,0,0,0-3.76,2.72c-.08.08-.16.24-.24.32s-.16.24-.24.32c-.24.32-.4.56-.56.8l-.48.72-.24.48c-.08.16-.24.32-.32.48a4.89,4.89,0,0,1-.4,1c-.16.32-.32.72-.56,1.12l-2.72-.08v-11.6h40.8v2L281.48,231h14.88a35.53,35.53,0,0,0,5.36-.16,13.08,13.08,0,0,0,3.68-1c.16-.08.32-.08.4-.16s.24-.08.32-.16a10.2,10.2,0,0,0,2-1.2,17,17,0,0,0,1.92-1.6c.48-.48.88-1,1.36-1.44s1-1.12,1.44-1.76l1.92-2.8h2.88Z"/></g></g><g id="svg_241" data-name="svg 241"><circle id="svg_242" data-name="svg 242" class="cls-10" cx="805" cy="210" r="40"/><g id="svg_243" data-name="svg 243"><polygon id="svg_244" data-name="svg 244" class="cls-2" points="795.24 241.36 797.16 238.08 805 249.12 812.84 238.08 814.76 241.36 818.2 241.36 825 244.64 825.56 237.12 827.24 234.08 825.4 230.8 838.84 229.52 833.24 217.28 837 217.28 838.76 214.24 845 210 838.76 205.76 837 202.8 833.24 202.8 838.84 190.48 825.4 189.2 827.24 185.92 825.56 182.88 825 175.36 818.2 178.64 814.76 178.64 812.84 181.92 805 170.88 797.16 181.92 795.24 178.64 791.8 178.64 785 175.36 784.44 182.88 782.76 185.92 784.6 189.2 771.16 190.48 776.76 202.8 773 202.8 771.24 205.76 765 210 771.24 214.24 773 217.28 776.76 217.28 771.16 229.52 784.6 230.8 782.76 234.08 784.44 237.12 785 244.64 791.8 241.36 795.24 241.36"/><polygon id="svg_245" data-name="svg 245" class="cls-8" points="792.92 234.16 805 214.72 817.08 234.16 817.08 237.44 819.88 239.04 822.68 237.44 822.68 234.16 819.88 232.56 809.08 212.32 831.96 211.6 834.76 213.2 837.56 211.6 837.56 208.4 834.76 206.8 831.96 208.4 809.08 207.68 819.88 187.44 822.68 185.84 822.68 182.56 819.88 180.96 817.08 182.56 817.08 185.84 805 205.28 792.92 185.84 792.92 182.56 790.12 180.96 787.32 182.56 787.32 185.84 790.12 187.44 800.92 207.68 778.04 208.4 775.24 206.8 772.44 208.4 772.44 211.6 775.24 213.2 778.04 211.6 800.92 212.32 790.12 232.56 787.32 234.16 787.32 237.44 790.12 239.04 792.92 237.44 792.92 234.16"/></g><polygon id="svg_246" data-name="svg 246" class="cls-8" points="810.68 187.92 805 197.76 799.4 187.92 805 178.08 810.68 187.92"/><polygon id="svg_247" data-name="svg 247" class="cls-8" points="788.68 194.08 794.36 203.84 783.08 203.84 777.4 194.08 788.68 194.08"/><polygon id="svg_248" data-name="svg 248" class="cls-8" points="783.08 216.16 794.36 216.16 788.68 225.92 777.32 225.92 783.08 216.16"/><polygon id="svg_249" data-name="svg 249" class="cls-8" points="799.32 232.08 805 222.24 810.6 232.08 805 241.92 799.32 232.08"/><polygon id="svg_250" data-name="svg 250" class="cls-8" points="821.32 225.92 815.64 216.16 826.92 216.16 832.68 225.92 821.32 225.92"/><polygon id="svg_251" data-name="svg 251" class="cls-8" points="826.92 203.84 815.64 203.84 821.32 194.08 832.68 194.08 826.92 203.84"/></g><g id="svg_1" data-name="svg 1"><circle id="svg_2" data-name="svg 2" class="cls-1" cx="40" cy="40" r="40"/></g><path id="svg_3" data-name="svg 3" class="cls-2" d="M18.4,41.92a48.22,48.22,0,0,1,5-21.68Q29.48,8,40.16,8c7,0,12.56,3.52,16.48,10.48a39.75,39.75,0,0,1,5,20.08,46.26,46.26,0,0,1-5,21.44c-4,8.08-9.6,12.08-16.8,12.08-6.8,0-12.24-3.44-16.24-10.32A39.07,39.07,0,0,1,18.4,41.92Zm9-3.52c0,10.32,1.52,18.4,4.64,24.16,2.16,4,4.88,6,8.32,6,8.08,0,12.16-8.4,12.16-25.2a77.87,77.87,0,0,0-1.92-18.72C48.4,16.16,44.64,12,39.28,12c-7.92,0-11.84,8.08-11.84,24.32Z"/><g id="svg_253" data-name="svg 253"><path id="svg_255" data-name="svg 255" class="cls-11" d="M250,465a40,40,0,1,1-40-40A40,40,0,0,1,250,465Z"/><path id="svg_257" data-name="svg 257" d="M209.76,434.6A71.77,71.77,0,0,0,217,446.2a55.8,55.8,0,0,0,4.24,4.88,52.09,52.09,0,0,0,5.2,5,55.78,55.78,0,0,0,6.24,4.8A53.37,53.37,0,0,0,240,465a86.3,86.3,0,0,0-11.36,7.44,55.8,55.8,0,0,0-4.88,4.24q-2.52,2.4-5,5.28c-1.6,1.92-3.2,4-4.72,6.24a52.41,52.41,0,0,0-4.08,7.2,73.27,73.27,0,0,0-7.2-11.2,87,87,0,0,0-9.36-9.92,62.63,62.63,0,0,0-13.6-9.36,78.2,78.2,0,0,0,11.36-7.36,88.68,88.68,0,0,0,9.92-9.44A56.23,56.23,0,0,0,209.76,434.6Zm-4.4,42.32a38.27,38.27,0,0,1,4.4,6.88,32.54,32.54,0,0,1,5.44-8.32,51.34,51.34,0,0,1,6.16-5.84,56.22,56.22,0,0,1,7-4.64,30,30,0,0,1-8.32-5.44,44.73,44.73,0,0,1-5.76-6.16,37.31,37.31,0,0,1-4.48-7.2,33.62,33.62,0,0,1-5.36,8.4,51,51,0,0,1-6.08,5.84,41.66,41.66,0,0,1-7,4.48,37,37,0,0,1,8.4,5.76,53.72,53.72,0,0,1,5.6,6.24Z"/></g><polygon id="color_backing" data-name="color backing" class="cls-8" points="294.95 431.86 277.81 429.56 274.98 449.63 263.32 472.83 283.13 481.05 294.95 501.78 309.1 482.04 326.25 469.54 313.26 429.56 294.95 431.86"/><path id="path4182" d="M294.1,504.75c-.44-.47-.56-1.35-.93-1.92s-1-1.28-1.45-1.93c-.61-.86-1.31-1.66-1.93-2.51a35.23,35.23,0,0,0-3.53-4,66,66,0,0,0-10-8.59,86.48,86.48,0,0,0-18.28-9.67c-.45-.17,0,0-2.93-1.42.55-.88,4-5.66,4.77-6.93a49.27,49.27,0,0,0,3.29-6.72,79.53,79.53,0,0,0,3.31-8.93,117.15,117.15,0,0,0,2.89-11.8c.21-1.11,1.46-10.5,2.2-15.3,6.52,1.86,4.29,1.3,5.77,1.68a73.45,73.45,0,0,0,12.61,1.57c2.4.18,4.77.16,7.18.13a88.61,88.61,0,0,0,10.69-.71,47.55,47.55,0,0,0,5.24-1A35.73,35.73,0,0,0,318.1,425c.32,1.24,3.65,23.85,8.12,34.25A106.45,106.45,0,0,0,335,474.43a162.39,162.39,0,0,0-17,8.17,71.64,71.64,0,0,0-16.67,13.24,62.78,62.78,0,0,0-5.84,8.15C294.82,505.07,294.55,505.22,294.1,504.75Zm1.91-9c1.27-6.57,4.93-14.93,10.65-24.31,1.93-3.16,5.59-8.59,7.82-11.58,1.38-1.85,1.82-2.53,1.82-2.81s-.08-.4-.18-.43a11.51,11.51,0,0,0-2,.25,65.87,65.87,0,0,1-16.92,1,15.64,15.64,0,0,1-3.91-.64,25.18,25.18,0,0,1,.76-4.74,43.79,43.79,0,0,1,10.5-18.65,10.67,10.67,0,0,0,1.32-1.52,3.7,3.7,0,0,0-1,.24c-6.29,2-13.29,2.19-18.33.53a9.63,9.63,0,0,0-1.29-.38,13.2,13.2,0,0,0,.11,1.5c.79,7.56-2.84,17.47-10.46,28.55-1.15,1.67-3.39,4.64-4.69,6.23-.53.64-.75,1-.64,1a17.14,17.14,0,0,0,2.14-.46,71.74,71.74,0,0,1,9.21-1.7,64.47,64.47,0,0,1,11.67.05,24.44,24.44,0,0,1,3.71.81,1.76,1.76,0,0,1-.13.59,47.28,47.28,0,0,0-1.51,7,79.4,79.4,0,0,0,0,16.84,43.05,43.05,0,0,0,.77,4.92c.1.16.15,0,.6-2.33Z"/><path id="svg_209-2" data-name="svg 209" class="cls-9" d="M402.08,464.92a18.51,18.51,0,0,0-4-11.92c-1.28-1.44-2.32-3-3.68-4.4-3-3-7.52-3.2-11.12-5-.24-1.92-.88-3.76-.48-5.68a2.44,2.44,0,0,0,0-1.84c-1-2.16-.16-4.56-.32-6.8-.16-1.2-.08-2.64-1.2-3.36a36,36,0,0,1-1.92,7.12c-.32,1.84-.32,3.76-1.12,5.44.48,1.76-.48,3.2-1.6,4.48-2.4,1.2-5.2,1.52-7.28,3.28a33.49,33.49,0,0,1-4.72,3.36c-1.2,1.52-2.64,3-3.12,5-2.24,2.64-2.48,6.24-3.76,9.36,0,4.64.88,9.6,3.84,13.36,2.16,1.76,3.6,4.08,5.68,5.84,2,1.2,4.24,2.24,6.32,3.28,1.36.32,2.8.48,4.16.88,1.12,5.68,1.84,11.52,4.08,16.88.72-2.24.64-4.56,1.28-6.8.88-3.28-1-6.72.08-10,1.52-1.36,4.16-.48,5.84-1.68,3.28-2,6.72-4,9.12-7,.88-1.76,2.72-3.12,2.72-5.2C401,470.52,402.72,467.88,402.08,464.92Zm-24.32,17.6a18.38,18.38,0,0,1-6.56-3.12c-2.16-1.44-3-4.08-5-5.52-2-2.4-1.52-5.6-2.4-8.4.32-1.92.72-3.92.88-5.84,1-1.6,2.48-2.8,2.88-4.72,1.44-2,3.6-3.44,5.28-5.2,1.28-1.44,3.28-.8,4.88-.88a13.79,13.79,0,0,0,.08,4.8,9.18,9.18,0,0,1,.48,3c-.32,2.16.48,4.32-.08,6.48-1.12,4.48.08,9,.24,13.44A30.58,30.58,0,0,1,377.76,482.52Zm18-8.48a39,39,0,0,0-4.32,3.84,27.25,27.25,0,0,1-7.6,4.24,14.18,14.18,0,0,0-.16-6.08c-1.6-4.48.32-9.12.72-13.68-.32-2.72,0-5.6-1.28-8-.16-1.84.64-3.68,1.2-5.44a20.12,20.12,0,0,1,5.2,3c1.92,1.44,4.8,2.32,5.2,5,.24,1.76,2.08,2.8,2.08,4.56C396.72,465.64,397.28,470,395.76,474Z"/></svg>